<?xml version="1.0" standalone="no"?>
<!DOCTYPE svg PUBLIC "-//W3C//DTD SVG 20010904//EN"
 "http://www.w3.org/TR/2001/REC-SVG-20010904/DTD/svg10.dtd">
<svg version="1.0" xmlns="http://www.w3.org/2000/svg"
 width="200.000000pt" height="200.000000pt" viewBox="0 0 200.000000 200.000000"
 preserveAspectRatio="xMidYMid meet">

<g transform="translate(0.000000,200.000000) scale(0.100000,-0.100000)"
fill="#000000" stroke="none">
<path d="M900 1993 c-209 -35 -394 -204 -455 -416 -22 -77 -22 -217 0 -293 61
-210 225 -366 430 -408 l60 -13 3 -221 2 -222 -25 0 -25 0 0 115 c0 68 -5 125
-12 142 -26 60 -62 104 -111 135 l-51 33 -161 3 c-95 1 -166 -1 -175 -7 -23
-15 -21 -301 2 -352 24 -54 83 -115 136 -141 43 -21 63 -23 235 -26 l187 -4 0
-137 c0 -149 10 -181 54 -181 31 0 44 17 48 65 l3 40 205 5 c200 5 206 6 250
32 59 34 84 62 112 123 19 43 23 70 26 192 5 192 12 186 -186 181 -133 -3
-152 -5 -195 -28 -56 -28 -102 -76 -128 -134 -14 -32 -19 -66 -19 -153 l0
-113 -35 0 -35 0 0 324 c0 349 -2 336 51 336 28 0 133 38 187 68 73 41 182
156 219 232 114 234 74 480 -106 660 -84 83 -165 129 -272 155 -60 14 -162 18
-219 8z m203 -108 c57 -15 135 -51 172 -80 19 -15 16 -20 -90 -124 -175 -173
-209 -173 -385 4 l-105 106 25 20 c92 74 259 106 383 74z m-363 -269 c126
-123 170 -148 255 -148 87 0 132 26 257 150 121 119 113 118 159 22 67 -139
65 -290 -7 -432 -13 -26 -29 -50 -35 -53 -6 -4 -57 38 -117 98 -125 122 -169
148 -252 148 -91 1 -135 -25 -262 -150 -111 -109 -111 -110 -128 -88 -77 99
-105 287 -61 412 21 59 67 145 78 145 3 0 54 -47 113 -104z m330 -322 c14 -7
71 -59 128 -117 l103 -103 -38 -27 c-159 -109 -375 -112 -529 -6 l-46 32 109
109 c138 138 186 158 273 112z m-360 -565 c63 -36 80 -79 80 -203 l0 -106 -92
0 c-181 1 -237 58 -238 243 l0 87 106 0 c90 0 112 -3 144 -21z m828 -297 c-5
-126 -21 -163 -86 -200 -34 -19 -55 -22 -142 -22 l-102 0 4 113 c3 99 6 116
27 146 38 53 89 71 205 71 l99 0 -5 -108z"/>
</g>
</svg>
