<svg width="24" height="24" viewBox="0 0 24 24" fill="none" xmlns="http://www.w3.org/2000/svg">
<path d="M12 0C9.62663 0 7.30655 0.703786 5.33316 2.02236C3.35977 3.34094 1.82171 5.21511 0.913454 7.40782C0.00520278 9.60053 -0.232442 12.0133 0.230581 14.3411C0.693603 16.6688 1.83649 18.807 3.51472 20.4853C5.19295 22.1635 7.33115 23.3064 9.65892 23.7694C11.9867 24.2324 14.3995 23.9948 16.5922 23.0865C18.7849 22.1783 20.6591 20.6402 21.9776 18.6668C23.2962 16.6934 24 14.3734 24 12C24 8.8174 22.7357 5.76514 20.4853 3.51471C18.2348 1.26427 15.1826 0 12 0ZM15.5358 17.22C14.4509 17.9995 13.1363 18.3937 11.8014 18.3396C10.5386 18.4095 9.29304 18.0211 8.2938 17.2458C7.88438 16.9171 7.55688 16.4977 7.33709 16.0209C7.11729 15.544 7.01122 15.0226 7.02721 14.4978C6.9757 13.7771 7.20004 13.0637 7.6548 12.5022C8.1105 12.0259 8.67814 11.6711 9.30601 11.4702C10.0376 11.2226 10.7821 11.0149 11.5362 10.848C12.2047 10.7012 12.855 10.4812 13.4754 10.1922C13.6836 10.1184 13.8649 9.98388 13.9959 9.80602C14.1269 9.62817 14.2016 9.41514 14.2104 9.19442C14.2131 8.99234 14.1663 8.79267 14.0742 8.6128C13.9821 8.43293 13.8474 8.27829 13.6818 8.1624C13.2406 7.869 12.7155 7.72803 12.1866 7.76099C11.6273 7.73263 11.0738 7.88633 10.6092 8.19902C10.4142 8.34272 10.2505 8.52459 10.1281 8.73358C10.0057 8.94256 9.92704 9.17428 9.89701 9.41462H7.43701C7.48047 8.88146 7.63225 8.36276 7.88304 7.89027C8.13384 7.41777 8.47838 7.00139 8.89561 6.66661C9.83404 5.98433 10.9766 5.64134 12.1356 5.69399C13.3526 5.61906 14.5544 5.99548 15.5112 6.7512C15.8959 7.07372 16.2037 7.47814 16.4121 7.93491C16.6204 8.39167 16.7241 8.88925 16.7154 9.39122C16.7331 9.72213 16.6838 10.0532 16.5704 10.3646C16.4569 10.6759 16.2818 10.9612 16.0554 11.2032C15.5842 11.6674 15.0154 12.0208 14.3904 12.2376C14.2584 12.2856 14.1258 12.3318 13.815 12.435C13.3422 12.5891 12.8615 12.7176 12.375 12.8202C11.6777 12.9478 10.9956 13.1477 10.3398 13.4166C10.101 13.5212 9.90129 13.6987 9.76929 13.9236C9.6373 14.1484 9.57972 14.4092 9.6048 14.6688C9.60702 14.8824 9.65541 15.093 9.74665 15.2861C9.83789 15.4793 9.96983 15.6504 10.1334 15.7878C10.6167 16.1527 11.2178 16.326 11.8212 16.2744C12.5068 16.3078 13.182 16.0964 13.7262 15.678C14.1821 15.32 14.5046 14.8192 14.6418 14.256H17.2218C17.1648 14.8405 16.9856 15.4064 16.6959 15.9172C16.4061 16.428 16.0124 16.8723 15.54 17.2212L15.5358 17.22Z" fill="white"/>
</svg>
