<svg xmlns="http://www.w3.org/2000/svg" viewBox="0 0 455 100"><defs><style>.a{fill:#fff;}</style></defs><title>xrplorer</title><path class="a" d="M16.66,2.85A5.49,5.49,0,0,0,12.14,0H2.66A1.84,1.84,0,0,0,.87,2.85l21,43.78a7.58,7.58,0,0,1,0,5.71L.85,97.14A1.85,1.85,0,0,0,2.66,100h9.47a5.43,5.43,0,0,0,4.5-2.86l21-44.81a7.58,7.58,0,0,0,0-5.71Z"/><path class="a" d="M81.83,2.85A1.84,1.84,0,0,0,80,0H70.56A5.49,5.49,0,0,0,66,2.85l-21,43.78a7.58,7.58,0,0,0,0,5.71l21,44.81a5.43,5.43,0,0,0,4.5,2.86H80a1.85,1.85,0,0,0,1.82-2.86l-21-44.81a7.58,7.58,0,0,1,0-5.71Z"/><path class="a" d="M198.06,100h13.68a3.17,3.17,0,0,0,3.16-3.16V91.58a3.17,3.17,0,0,0-3.16-3.16h-9.47a3.17,3.17,0,0,1-3.16-3.16V3.16A3.17,3.17,0,0,0,196,0h-7.37a3.17,3.17,0,0,0-3.16,3.16V96.84a3.17,3.17,0,0,0,3.16,3.16Z"/><path class="a" d="M398.06,11.58a3.17,3.17,0,0,0,3.16-3.16V3.16A3.17,3.17,0,0,0,398.06,0H374.9a3.17,3.17,0,0,0-3.16,3.16V96.84A3.17,3.17,0,0,0,374.9,100h23.16a3.17,3.17,0,0,0,3.16-3.16V91.58a3.17,3.17,0,0,0-3.16-3.16h-9.47a3.17,3.17,0,0,1-3.16-3.16V57.89a3.17,3.17,0,0,1,3.16-3.16h9.47a3.17,3.17,0,0,0,3.16-3.16V47.37a3.17,3.17,0,0,0-3.16-3.16h-9.47a3.17,3.17,0,0,1-3.16-3.16V14.74a3.17,3.17,0,0,1,3.16-3.16Z"/><path class="a" d="M109.79,52.33a5.22,5.22,0,0,1,.75-5.22l18.18-20.53a3.58,3.58,0,0,0,0-4.68L110.6,2.32A8.28,8.28,0,0,0,105.3,0H95.82c-1.74,0-2.19,1-1,2.32l18.08,19.57a3.58,3.58,0,0,1,0,4.68L94.76,47.11A5.22,5.22,0,0,0,94,52.33l21,44.81a5.43,5.43,0,0,0,4.5,2.86H129a1.85,1.85,0,0,0,1.82-2.86Z"/><path class="a" d="M433.15,52.33a5.22,5.22,0,0,1,.75-5.22l18.18-20.53a3.58,3.58,0,0,0,0-4.68L434,2.32A8.28,8.28,0,0,0,428.65,0h-9.47c-1.74,0-2.19,1-1,2.32l18.08,19.57a3.58,3.58,0,0,1,0,4.68L418.11,47.11a5.22,5.22,0,0,0-.75,5.22l21,44.81a5.43,5.43,0,0,0,4.5,2.86h9.47a1.85,1.85,0,0,0,1.82-2.86Z"/><path class="a" d="M352.48,26.57a3.58,3.58,0,0,0,0-4.68L334.35,2.32A8.28,8.28,0,0,0,329,0h-9.47c-1.74,0-2.19,1-1,2.32l18.08,19.57a3.58,3.58,0,0,1,0,4.68L318.51,47.11a5.22,5.22,0,0,0-.75,5.22l21,44.81a5.43,5.43,0,0,0,4.5,2.86h9.47a1.85,1.85,0,0,0,1.82-2.86l-21-44.81a5.22,5.22,0,0,1,.75-5.22Z"/><path class="a" d="M152.7,2.32A8.28,8.28,0,0,0,147.4,0h-9.47c-1.74,0-2.19,1-1,2.32L155,21.89a3.58,3.58,0,0,1,0,4.68L136.86,47.11c-1.15,1.3-.67,2.36,1.06,2.36h9.47a8,8,0,0,0,5.25-2.36l18.18-20.53a3.58,3.58,0,0,0,0-4.68Z"/><path class="a" d="M284.95,2.85A5.49,5.49,0,0,0,280.43,0H271a1.84,1.84,0,0,0-1.79,2.85l21,43.78a7.58,7.58,0,0,1,0,5.71l-21,44.81A1.85,1.85,0,0,0,271,100h9.47a5.43,5.43,0,0,0,4.5-2.86l21-44.81a7.58,7.58,0,0,0,0-5.71Z"/><path class="a" d="M259.33,2.85A1.84,1.84,0,0,0,257.53,0h-9.47a5.49,5.49,0,0,0-4.52,2.85l-21,43.78a7.58,7.58,0,0,0,0,5.71l21,44.81a5.43,5.43,0,0,0,4.5,2.86h9.47a1.85,1.85,0,0,0,1.82-2.86l-21-44.81a7.58,7.58,0,0,1,0-5.71Z"/><path class="a" d="M271.31,47a4.07,4.07,0,0,1,0,4.9l-5.08,6.26a2.46,2.46,0,0,1-4,0l-5.08-6.26a4.07,4.07,0,0,1,0-4.9l5.08-6.26a2.46,2.46,0,0,1,4,0Z"/></svg>