<?xml version="1.0" standalone="no"?>
<!DOCTYPE svg PUBLIC "-//W3C//DTD SVG 20010904//EN"
 "http://www.w3.org/TR/2001/REC-SVG-20010904/DTD/svg10.dtd">
<svg version="1.0" xmlns="http://www.w3.org/2000/svg"
 width="1024.000000pt" height="1024.000000pt" viewBox="0 0 1024.000000 1024.000000"
 preserveAspectRatio="xMidYMid meet">
<metadata>
Created by potrace 1.14, written by Peter Selinger 2001-2017
</metadata>
<g transform="translate(0.000000,1024.000000) scale(0.100000,-0.100000)"
fill="#000000" stroke="none">
<path d="M0 5120 l0 -5120 5120 0 5120 0 0 5120 0 5120 -5120 0 -5120 0 0
-5120z m2820 2366 c8 -13 413 -551 900 -1195 487 -645 885 -1176 885 -1181 0
-5 -402 -537 -893 -1182 -491 -645 -896 -1179 -901 -1186 -6 -10 -120 -12
-540 -10 l-532 3 901 1182 c495 651 900 1188 900 1193 0 6 -402 543 -893 1193
-491 650 -896 1188 -901 1195 -6 9 102 12 526 12 l533 0 15 -24z m2583 -816
c345 -459 636 -845 645 -858 17 -22 22 -16 657 837 l640 860 568 1 c312 0 567
-2 567 -4 0 -2 -405 -538 -901 -1191 -543 -716 -898 -1193 -895 -1202 3 -8
410 -541 904 -1186 494 -645 902 -1178 906 -1184 6 -10 -110 -13 -566 -12
l-573 0 -640 830 c-352 457 -647 839 -655 850 -15 18 -50 -26 -665 -830 l-650
-850 -563 0 c-370 -1 -563 2 -560 9 2 5 406 539 898 1185 492 647 896 1179
897 1183 1 4 -402 543 -897 1197 -495 655 -900 1193 -900 1198 0 4 260 6 578
5 l577 -3 628 -835z"/>
</g>
</svg>
