<?xml version="1.0" standalone="no"?>
<!DOCTYPE svg PUBLIC "-//W3C//DTD SVG 20010904//EN"
 "http://www.w3.org/TR/2001/REC-SVG-20010904/DTD/svg10.dtd">
<svg version="1.0" xmlns="http://www.w3.org/2000/svg"
 width="700.000000pt" height="700.000000pt" viewBox="0 0 700.000000 700.000000"
 preserveAspectRatio="xMidYMid meet">
<metadata>
Created by potrace 1.14, written by Peter Selinger 2001-2017
</metadata>
<g transform="translate(0.000000,700.000000) scale(0.100000,-0.100000)"
fill="#000000" stroke="none">
<path d="M3280 6994 c-19 -2 -84 -9 -145 -14 -578 -56 -1180 -283 -1660 -625
-237 -169 -531 -446 -709 -670 -416 -521 -673 -1147 -748 -1820 -17 -154 -17
-585 0 -730 69 -588 254 -1099 567 -1570 126 -189 242 -332 410 -504 580 -595
1295 -943 2140 -1043 145 -17 576 -17 730 0 822 91 1556 447 2131 1034 203
206 348 390 487 618 274 449 432 915 499 1465 16 135 16 591 0 730 -100 846
-447 1557 -1043 2141 -555 542 -1249 874 -2029 970 -117 15 -553 27 -630 18z
m-1312 -1873 l-36 -6 109 -145 c61 -80 118 -156 127 -169 9 -13 26 -35 37 -50
12 -14 27 -36 35 -47 15 -22 96 -128 186 -242 27 -35 54 -71 59 -80 6 -10 13
-19 16 -22 5 -5 76 -97 114 -150 11 -15 32 -43 46 -61 178 -234 252 -332 283
-379 14 -19 36 -47 50 -62 14 -15 26 -30 26 -33 0 -3 27 -40 61 -82 34 -42 63
-82 66 -89 3 -10 -71 -127 -102 -160 -5 -6 -21 -26 -35 -44 -14 -19 -37 -48
-51 -64 -14 -17 -49 -65 -79 -106 -29 -41 -59 -79 -66 -85 -6 -5 -53 -66 -104
-135 -51 -69 -105 -139 -119 -156 -14 -17 -48 -62 -76 -100 -27 -38 -55 -76
-62 -84 -20 -26 -170 -222 -215 -283 -24 -32 -54 -70 -67 -85 -13 -15 -40 -52
-61 -82 -21 -30 -47 -65 -59 -77 -12 -12 -21 -25 -21 -27 0 -3 -6 -14 -14 -23
-8 -10 -31 -38 -52 -63 l-37 -45 39 -6 c22 -3 -121 -6 -316 -7 -195 0 -375 3
-399 6 l-43 7 611 803 c382 501 609 807 604 815 -4 7 -279 372 -611 812 l-604
800 38 6 c22 3 201 6 399 6 198 0 344 -3 323 -6z m925 -1 l372 0 435 -580
c239 -319 438 -579 442 -578 4 2 201 262 436 578 l429 575 387 3 387 2 -44
-57 c-449 -589 -1177 -1555 -1177 -1563 0 -5 265 -355 588 -778 323 -422 601
-784 616 -804 l28 -38 -388 0 -389 1 -444 575 c-244 316 -446 572 -450 569 -3
-3 -202 -261 -442 -573 l-435 -567 -382 -5 c-210 -3 -382 -2 -382 2 0 4 275
368 610 809 336 440 610 803 610 805 0 3 -274 368 -609 812 -335 443 -607 810
-604 815 3 5 12 6 20 3 8 -3 182 -6 386 -6z"/>
</g>
</svg>
