<?xml version="1.0" encoding="UTF-8"?>
<svg id="Layer_2" data-name="Layer 2" xmlns="http://www.w3.org/2000/svg" viewBox="0 0 900 292.21">
  <defs>
    <style>
      .cls-1 {
        fill: #3f96fe;
      }

      .cls-1, .cls-2, .cls-3, .cls-4, .cls-5, .cls-6, .cls-7, .cls-8, .cls-9, .cls-10, .cls-11, .cls-12, .cls-13, .cls-14, .cls-15, .cls-16, .cls-17, .cls-18, .cls-19, .cls-20, .cls-21, .cls-22, .cls-23, .cls-24, .cls-25, .cls-26, .cls-27, .cls-28, .cls-29, .cls-30, .cls-31, .cls-32, .cls-33, .cls-34, .cls-35, .cls-36, .cls-37, .cls-38, .cls-39, .cls-40, .cls-41, .cls-42, .cls-43, .cls-44, .cls-45, .cls-46, .cls-47, .cls-48, .cls-49, .cls-50, .cls-51, .cls-52, .cls-53, .cls-54, .cls-55, .cls-56, .cls-57, .cls-58, .cls-59, .cls-60, .cls-61, .cls-62, .cls-63, .cls-64, .cls-65, .cls-66, .cls-67, .cls-68, .cls-69, .cls-70, .cls-71, .cls-72, .cls-73, .cls-74, .cls-75, .cls-76, .cls-77, .cls-78, .cls-79, .cls-80, .cls-81, .cls-82, .cls-83, .cls-84, .cls-85, .cls-86, .cls-87, .cls-88, .cls-89, .cls-90, .cls-91, .cls-92, .cls-93, .cls-94, .cls-95, .cls-96, .cls-97, .cls-98, .cls-99, .cls-100, .cls-101, .cls-102, .cls-103, .cls-104, .cls-105, .cls-106, .cls-107, .cls-108, .cls-109, .cls-110, .cls-111, .cls-112, .cls-113, .cls-114, .cls-115, .cls-116, .cls-117, .cls-118, .cls-119, .cls-120, .cls-121, .cls-122, .cls-123, .cls-124, .cls-125, .cls-126, .cls-127, .cls-128, .cls-129, .cls-130, .cls-131, .cls-132, .cls-133, .cls-134, .cls-135, .cls-136, .cls-137, .cls-138, .cls-139, .cls-140, .cls-141, .cls-142, .cls-143, .cls-144, .cls-145, .cls-146, .cls-147, .cls-148, .cls-149, .cls-150, .cls-151, .cls-152, .cls-153, .cls-154, .cls-155, .cls-156, .cls-157, .cls-158, .cls-159, .cls-160, .cls-161, .cls-162, .cls-163, .cls-164, .cls-165, .cls-166 {
        stroke-width: 0px;
      }

      .cls-2 {
        fill: #65abfe;
      }

      .cls-3 {
        fill: #97c8ff;
      }

      .cls-4 {
        fill: #71b2ff;
      }

      .cls-5 {
        fill: #a7d1ff;
      }

      .cls-6 {
        fill: #66acff;
      }

      .cls-7 {
        fill: #4297fe;
      }

      .cls-8 {
        fill: #a4d0ff;
      }

      .cls-9 {
        fill: #9ccbff;
      }

      .cls-10 {
        fill: #8dc2ff;
      }

      .cls-11 {
        fill: #61a9fe;
      }

      .cls-12 {
        fill: #5ea7fe;
      }

      .cls-13 {
        fill: #67adff;
      }

      .cls-14 {
        fill: #99c9ff;
      }

      .cls-15 {
        fill: #a9d2ff;
      }

      .cls-16 {
        fill: #5aa5fe;
      }

      .cls-17 {
        fill: #8ac1ff;
      }

      .cls-18 {
        fill: #187ffe;
      }

      .cls-19 {
        fill: #b6daff;
      }

      .cls-20 {
        fill: #3a93fe;
      }

      .cls-21 {
        fill: #a6d1ff;
      }

      .cls-22 {
        fill: #2e8cfe;
      }

      .cls-23 {
        fill: #3791fe;
      }

      .cls-24 {
        fill: #70b2ff;
      }

      .cls-25 {
        fill: #2d8bfe;
      }

      .cls-26 {
        fill: #4197fe;
      }

      .cls-27 {
        fill: #68adff;
      }

      .cls-28 {
        fill: #2c8bfe;
      }

      .cls-29 {
        fill: #55a2fe;
      }

      .cls-30 {
        fill: #a3cfff;
      }

      .cls-31 {
        fill: #8cc2ff;
      }

      .cls-32 {
        fill: #3892fe;
      }

      .cls-33 {
        fill: #4e9efe;
      }

      .cls-34 {
        fill: #5da7fe;
      }

      .cls-35 {
        fill: #93c6ff;
      }

      .cls-36 {
        fill: #3b93fe;
      }

      .cls-37 {
        fill: #1980fe;
      }

      .cls-38 {
        fill: #4f9ffe;
      }

      .cls-39 {
        fill: #79b7ff;
      }

      .cls-40 {
        fill: #308dfe;
      }

      .cls-41 {
        fill: #88bfff;
      }

      .cls-42 {
        fill: #8bc1ff;
      }

      .cls-43 {
        fill: #2687fe;
      }

      .cls-44 {
        fill: #4599fe;
      }

      .cls-45 {
        fill: #1b81fe;
      }

      .cls-46 {
        fill: #83bdff;
      }

      .cls-47 {
        fill: #6db0ff;
      }

      .cls-48 {
        fill: #4398fe;
      }

      .cls-49 {
        fill: #147dfe;
      }

      .cls-50 {
        fill: #2989fe;
      }

      .cls-51 {
        fill: #479afe;
      }

      .cls-52 {
        fill: #77b6ff;
      }

      .cls-53 {
        fill: #b5d9ff;
      }

      .cls-54 {
        fill: #9fcdff;
      }

      .cls-55 {
        fill: #2f8cfe;
      }

      .cls-56 {
        fill: #74b4ff;
      }

      .cls-57 {
        fill: #348ffe;
      }

      .cls-58 {
        fill: #2587fe;
      }

      .cls-59 {
        fill: #157efe;
      }

      .cls-60 {
        fill: #95c7ff;
      }

      .cls-61 {
        fill: #2888fe;
      }

      .cls-62 {
        fill: #add5ff;
      }

      .cls-63 {
        fill: #63aafe;
      }

      .cls-64 {
        fill: #9eccff;
      }

      .cls-65 {
        fill: #2386fe;
      }

      .cls-66 {
        fill: #a2ceff;
      }

      .cls-67 {
        fill: #3e95fe;
      }

      .cls-68 {
        fill: #499bfe;
      }

      .cls-69 {
        fill: #abd4ff;
      }

      .cls-70 {
        fill: #2184fe;
      }

      .cls-71 {
        fill: #338ffe;
      }

      .cls-72 {
        fill: #81bbff;
      }

      .cls-73 {
        fill: #b2d8ff;
      }

      .cls-74 {
        fill: #a8d2ff;
      }

      .cls-75 {
        fill: #91c5ff;
      }

      .cls-76 {
        fill: #8fc4ff;
      }

      .cls-77 {
        fill: #76b5ff;
      }

      .cls-78 {
        fill: #89c0ff;
      }

      .cls-79 {
        fill: #85beff;
      }

      .cls-80 {
        fill: #56a3fe;
      }

      .cls-81 {
        fill: #6eb1ff;
      }

      .cls-82 {
        fill: #98c9ff;
      }

      .cls-83 {
        fill: #3590fe;
      }

      .cls-84 {
        fill: #1e83fe;
      }

      .cls-85 {
        fill: #3d94fe;
      }

      .cls-86 {
        fill: #82bcff;
      }

      .cls-87 {
        fill: #328efe;
      }

      .cls-88 {
        fill: #a0cdff;
      }

      .cls-89 {
        fill: #9bcaff;
      }

      .cls-90 {
        fill: #5fa8fe;
      }

      .cls-91 {
        fill: #60a9fe;
      }

      .cls-92 {
        fill: #57a3fe;
      }

      .cls-93 {
        fill: #6fb1ff;
      }

      .cls-94 {
        fill: #7fbaff;
      }

      .cls-95 {
        fill: #1f83fe;
      }

      .cls-96 {
        fill: #64abfe;
      }

      .cls-97 {
        fill: #aad3ff;
      }

      .cls-98 {
        fill: #2a8afe;
      }

      .cls-99 {
        fill: #72b3ff;
      }

      .cls-100 {
        fill: #1c82fe;
      }

      .cls-101 {
        fill: #87bfff;
      }

      .cls-102 {
        fill: #b4d9ff;
      }

      .cls-103 {
        fill: #1a80fe;
      }

      .cls-104 {
        fill: #509ffe;
      }

      .cls-105 {
        fill: #aed5ff;
      }

      .cls-106 {
        fill: #75b5ff;
      }

      .cls-107 {
        fill: #7ab7ff;
      }

      .cls-108 {
        fill: #4d9efe;
      }

      .cls-109 {
        fill: #62aafe;
      }

      .cls-110 {
        fill: #b0d6ff;
      }

      .cls-111 {
        fill: #489bfe;
      }

      .cls-112 {
        fill: #acd4ff;
      }

      .cls-113 {
        fill: #69aeff;
      }

      .cls-114 {
        fill: #a1ceff;
      }

      .cls-115 {
        fill: #3992fe;
      }

      .cls-116 {
        fill: #86beff;
      }

      .cls-117 {
        fill: #9acaff;
      }

      .cls-118 {
        fill: #b1d7ff;
      }

      .cls-119 {
        fill: #2b8afe;
      }

      .cls-120 {
        fill: #7bb8ff;
      }

      .cls-121 {
        fill: #3c94fe;
      }

      .cls-122 {
        fill: #92c5ff;
      }

      .cls-123 {
        fill: #4a9cfe;
      }

      .cls-124 {
        fill: #177ffe;
      }

      .cls-125 {
        fill: #7cb9ff;
      }

      .cls-126 {
        fill: #b3d8ff;
      }

      .cls-127 {
        fill: #2486fe;
      }

      .cls-128 {
        fill: #0b0b0b;
      }

      .cls-129 {
        fill: #2084fe;
      }

      .cls-130 {
        fill: #53a1fe;
      }

      .cls-131 {
        fill: #9dccff;
      }

      .cls-132 {
        fill: #167efe;
      }

      .cls-133 {
        fill: #7db9ff;
      }

      .cls-134 {
        fill: #58a4fe;
      }

      .cls-135 {
        fill: #90c4ff;
      }

      .cls-136 {
        fill: #4c9dfe;
      }

      .cls-137 {
        fill: #2788fe;
      }

      .cls-138 {
        fill: #6aaeff;
      }

      .cls-139 {
        fill: #afd6ff;
      }

      .cls-140 {
        fill: #4096fe;
      }

      .cls-141 {
        fill: #94c6ff;
      }

      .cls-142 {
        fill: #5ba6fe;
      }

      .cls-143 {
        fill: #469afe;
      }

      .cls-144 {
        fill: #6cafff;
      }

      .cls-145 {
        fill: #52a1fe;
      }

      .cls-146 {
        fill: #80bbff;
      }

      .cls-147 {
        fill: #7ebaff;
      }

      .cls-148 {
        fill: #2285fe;
      }

      .cls-149 {
        fill: #78b6ff;
      }

      .cls-150 {
        fill: #96c8ff;
      }

      .cls-151 {
        fill: #4b9dfe;
      }

      .cls-152 {
        fill: #6bafff;
      }

      .cls-153 {
        fill: #b8dbff;
      }

      .cls-154 {
        fill: #59a5fe;
      }

      .cls-155 {
        fill: #b7daff;
      }

      .cls-156 {
        fill: #51a0fe;
      }

      .cls-157 {
        fill: #54a2fe;
      }

      .cls-158 {
        fill: #a5d0ff;
      }

      .cls-159 {
        fill: #5ca6fe;
      }

      .cls-160 {
        fill: #3690fe;
      }

      .cls-161 {
        fill: #318efe;
      }

      .cls-162 {
        fill: #8ec3ff;
      }

      .cls-163 {
        fill: #1d82fe;
      }

      .cls-164 {
        fill: #4499fe;
      }

      .cls-165 {
        fill: #84bdff;
      }

      .cls-166 {
        fill: #73b3ff;
      }
    </style>
  </defs>
  <g id="XRPL.to">
    <g id="logo_design" data-name="logo design">
      <g>
        <g>
          <polygon class="cls-153" points="38.65 65.64 0 65.64 60.64 145.94 0 225.57 37.65 225.57 81.3 168.6 81.97 169.46 81.97 123.28 38.65 65.64"/>
          <polygon class="cls-155" points="38.92 65.64 .27 65.64 60.91 145.94 .27 225.57 37.92 225.57 81.57 168.6 82.23 169.46 82.23 123.28 38.92 65.64"/>
          <polygon class="cls-19" points="39.19 65.64 .54 65.64 61.18 145.94 .54 225.57 38.19 225.57 81.84 168.6 82.5 169.46 82.5 123.28 39.19 65.64"/>
          <polygon class="cls-53" points="39.46 65.64 .81 65.64 61.45 145.94 .81 225.57 38.46 225.57 82.11 168.6 82.77 169.46 82.77 123.28 39.46 65.64"/>
          <polygon class="cls-102" points="39.72 65.64 1.07 65.64 61.72 145.94 1.07 225.57 38.73 225.57 82.37 168.6 83.04 169.46 83.04 123.28 39.72 65.64"/>
          <polygon class="cls-126" points="39.99 65.64 1.34 65.64 61.98 145.94 1.34 225.57 38.99 225.57 82.64 168.6 83.31 169.46 83.31 123.28 39.99 65.64"/>
          <polygon class="cls-73" points="40.26 65.64 1.61 65.64 62.25 145.94 1.61 225.57 39.26 225.57 82.91 168.6 83.58 169.46 83.58 123.28 40.26 65.64"/>
          <polygon class="cls-118" points="40.53 65.64 1.88 65.64 62.52 145.94 1.88 225.57 39.53 225.57 83.18 168.6 83.85 169.46 83.85 123.28 40.53 65.64"/>
          <polygon class="cls-110" points="40.8 65.64 2.15 65.64 62.79 145.94 2.15 225.57 39.8 225.57 83.45 168.6 84.11 169.46 84.11 123.28 40.8 65.64"/>
          <polygon class="cls-139" points="41.07 65.64 2.42 65.64 63.06 145.94 2.42 225.57 40.07 225.57 83.72 168.6 84.38 169.46 84.38 123.28 41.07 65.64"/>
          <polygon class="cls-105" points="41.34 65.64 2.69 65.64 63.33 145.94 2.69 225.57 40.34 225.57 83.98 168.6 84.65 169.46 84.65 123.28 41.34 65.64"/>
          <polygon class="cls-62" points="41.6 65.64 2.95 65.64 63.6 145.94 2.95 225.57 40.6 225.57 84.25 168.6 84.92 169.46 84.92 123.28 41.6 65.64"/>
          <polygon class="cls-112" points="41.87 65.64 3.22 65.64 63.86 145.94 3.22 225.57 40.87 225.57 84.52 168.6 85.19 169.46 85.19 123.28 41.87 65.64"/>
          <polygon class="cls-69" points="42.14 65.64 3.49 65.64 64.13 145.94 3.49 225.57 41.14 225.57 84.79 168.6 85.46 169.46 85.46 123.28 42.14 65.64"/>
          <polygon class="cls-97" points="42.41 65.64 3.76 65.64 64.4 145.94 3.76 225.57 41.41 225.57 85.06 168.6 85.73 169.46 85.73 123.28 42.41 65.64"/>
          <polygon class="cls-15" points="42.68 65.64 4.03 65.64 64.67 145.94 4.03 225.57 41.68 225.57 85.33 168.6 85.99 169.46 85.99 123.28 42.68 65.64"/>
          <polygon class="cls-74" points="42.95 65.64 4.3 65.64 64.94 145.94 4.3 225.57 41.95 225.57 85.6 168.6 86.26 169.46 86.26 123.28 42.95 65.64"/>
          <polygon class="cls-5" points="43.22 65.64 4.57 65.64 65.21 145.94 4.57 225.57 42.22 225.57 85.86 168.6 86.53 169.46 86.53 123.28 43.22 65.64"/>
          <polygon class="cls-21" points="43.48 65.64 4.83 65.64 65.47 145.94 4.83 225.57 42.48 225.57 86.13 168.6 86.8 169.46 86.8 123.28 43.48 65.64"/>
          <polygon class="cls-158" points="43.75 65.64 5.1 65.64 65.74 145.94 5.1 225.57 42.75 225.57 86.4 168.6 87.07 169.46 87.07 123.28 43.75 65.64"/>
          <polygon class="cls-8" points="44.02 65.64 5.37 65.64 66.01 145.94 5.37 225.57 43.02 225.57 86.67 168.6 87.34 169.46 87.34 123.28 44.02 65.64"/>
          <polygon class="cls-30" points="44.29 65.64 5.64 65.64 66.28 145.94 5.64 225.57 43.29 225.57 86.94 168.6 87.6 169.46 87.6 123.28 44.29 65.64"/>
          <polygon class="cls-66" points="44.56 65.64 5.91 65.64 66.55 145.94 5.91 225.57 43.56 225.57 87.21 168.6 87.87 169.46 87.87 123.28 44.56 65.64"/>
          <polygon class="cls-114" points="44.83 65.64 6.18 65.64 66.82 145.94 6.18 225.57 43.83 225.57 87.48 168.6 88.14 169.46 88.14 123.28 44.83 65.64"/>
          <polygon class="cls-88" points="45.1 65.64 6.44 65.64 67.09 145.94 6.44 225.57 44.1 225.57 87.74 168.6 88.41 169.46 88.41 123.28 45.1 65.64"/>
          <polygon class="cls-54" points="45.36 65.64 6.71 65.64 67.35 145.94 6.71 225.57 44.36 225.57 88.01 168.6 88.68 169.46 88.68 123.28 45.36 65.64"/>
          <polygon class="cls-64" points="45.63 65.64 6.98 65.64 67.62 145.94 6.98 225.57 44.63 225.57 88.28 168.6 88.95 169.46 88.95 123.28 45.63 65.64"/>
          <polygon class="cls-131" points="45.9 65.64 7.25 65.64 67.89 145.94 7.25 225.57 44.9 225.57 88.55 168.6 89.22 169.46 89.22 123.28 45.9 65.64"/>
          <polygon class="cls-9" points="46.17 65.64 7.52 65.64 68.16 145.94 7.52 225.57 45.17 225.57 88.82 168.6 89.48 169.46 89.48 123.28 46.17 65.64"/>
          <polygon class="cls-89" points="46.44 65.64 7.79 65.64 68.43 145.94 7.79 225.57 45.44 225.57 89.09 168.6 89.75 169.46 89.75 123.28 46.44 65.64"/>
          <polygon class="cls-117" points="46.71 65.64 8.06 65.64 68.7 145.94 8.06 225.57 45.71 225.57 89.36 168.6 90.02 169.46 90.02 123.28 46.71 65.64"/>
          <polygon class="cls-14" points="46.98 65.64 8.32 65.64 68.97 145.94 8.32 225.57 45.98 225.57 89.62 168.6 90.29 169.46 90.29 123.28 46.98 65.64"/>
          <polygon class="cls-82" points="47.24 65.64 8.59 65.64 69.23 145.94 8.59 225.57 46.24 225.57 89.89 168.6 90.56 169.46 90.56 123.28 47.24 65.64"/>
          <polygon class="cls-3" points="47.51 65.64 8.86 65.64 69.5 145.94 8.86 225.57 46.51 225.57 90.16 168.6 90.83 169.46 90.83 123.28 47.51 65.64"/>
          <polygon class="cls-150" points="47.78 65.64 9.13 65.64 69.77 145.94 9.13 225.57 46.78 225.57 90.43 168.6 91.1 169.46 91.1 123.28 47.78 65.64"/>
          <polygon class="cls-60" points="48.05 65.64 9.4 65.64 70.04 145.94 9.4 225.57 47.05 225.57 90.7 168.6 91.36 169.46 91.36 123.28 48.05 65.64"/>
          <polygon class="cls-141" points="48.32 65.64 9.67 65.64 70.31 145.94 9.67 225.57 47.32 225.57 90.97 168.6 91.63 169.46 91.63 123.28 48.32 65.64"/>
          <polygon class="cls-35" points="48.59 65.64 9.94 65.64 70.58 145.94 9.94 225.57 47.59 225.57 91.24 168.6 91.9 169.46 91.9 123.28 48.59 65.64"/>
          <polygon class="cls-122" points="48.85 65.64 10.2 65.64 70.85 145.94 10.2 225.57 47.86 225.57 91.5 168.6 92.17 169.46 92.17 123.28 48.85 65.64"/>
          <polygon class="cls-75" points="49.12 65.64 10.47 65.64 71.11 145.94 10.47 225.57 48.12 225.57 91.77 168.6 92.44 169.46 92.44 123.28 49.12 65.64"/>
          <polygon class="cls-135" points="49.39 65.64 10.74 65.64 71.38 145.94 10.74 225.57 48.39 225.57 92.04 168.6 92.71 169.46 92.71 123.28 49.39 65.64"/>
          <polygon class="cls-76" points="49.66 65.64 11.01 65.64 71.65 145.94 11.01 225.57 48.66 225.57 92.31 168.6 92.98 169.46 92.98 123.28 49.66 65.64"/>
          <polygon class="cls-162" points="49.93 65.64 11.28 65.64 71.92 145.94 11.28 225.57 48.93 225.57 92.58 168.6 93.24 169.46 93.24 123.28 49.93 65.64"/>
          <polygon class="cls-10" points="50.2 65.64 11.55 65.64 72.19 145.94 11.55 225.57 49.2 225.57 92.85 168.6 93.51 169.46 93.51 123.28 50.2 65.64"/>
          <polygon class="cls-31" points="50.47 65.64 11.82 65.64 72.46 145.94 11.82 225.57 49.47 225.57 93.11 168.6 93.78 169.46 93.78 123.28 50.47 65.64"/>
          <polygon class="cls-42" points="50.73 65.64 12.08 65.64 72.73 145.94 12.08 225.57 49.74 225.57 93.38 168.6 94.05 169.46 94.05 123.28 50.73 65.64"/>
          <polygon class="cls-17" points="51 65.64 12.35 65.64 72.99 145.94 12.35 225.57 50 225.57 93.65 168.6 94.32 169.46 94.32 123.28 51 65.64"/>
          <polygon class="cls-78" points="51.27 65.64 12.62 65.64 73.26 145.94 12.62 225.57 50.27 225.57 93.92 168.6 94.59 169.46 94.59 123.28 51.27 65.64"/>
          <polygon class="cls-41" points="51.54 65.64 12.89 65.64 73.53 145.94 12.89 225.57 50.54 225.57 94.19 168.6 94.86 169.46 94.86 123.28 51.54 65.64"/>
          <polygon class="cls-101" points="51.81 65.64 13.16 65.64 73.8 145.94 13.16 225.57 50.81 225.57 94.46 168.6 95.12 169.46 95.12 123.28 51.81 65.64"/>
          <polygon class="cls-116" points="52.08 65.64 13.43 65.64 74.07 145.94 13.43 225.57 51.08 225.57 94.73 168.6 95.39 169.46 95.39 123.28 52.08 65.64"/>
          <polygon class="cls-79" points="52.35 65.64 13.7 65.64 74.34 145.94 13.7 225.57 51.35 225.57 94.99 168.6 95.66 169.46 95.66 123.28 52.35 65.64"/>
          <polygon class="cls-165" points="52.61 65.64 13.96 65.64 74.6 145.94 13.96 225.57 51.61 225.57 95.26 168.6 95.93 169.46 95.93 123.28 52.61 65.64"/>
          <polygon class="cls-46" points="52.88 65.64 14.23 65.64 74.87 145.94 14.23 225.57 51.88 225.57 95.53 168.6 96.2 169.46 96.2 123.28 52.88 65.64"/>
          <polygon class="cls-86" points="53.15 65.64 14.5 65.64 75.14 145.94 14.5 225.57 52.15 225.57 95.8 168.6 96.47 169.46 96.47 123.28 53.15 65.64"/>
          <polygon class="cls-72" points="53.42 65.64 14.77 65.64 75.41 145.94 14.77 225.57 52.42 225.57 96.07 168.6 96.73 169.46 96.73 123.28 53.42 65.64"/>
          <polygon class="cls-146" points="53.69 65.64 15.04 65.64 75.68 145.94 15.04 225.57 52.69 225.57 96.34 168.6 97 169.46 97 123.28 53.69 65.64"/>
          <polygon class="cls-94" points="53.96 65.64 15.31 65.64 75.95 145.94 15.31 225.57 52.96 225.57 96.61 168.6 97.27 169.46 97.27 123.28 53.96 65.64"/>
          <polygon class="cls-147" points="54.23 65.64 15.57 65.64 76.22 145.94 15.57 225.57 53.23 225.57 96.87 168.6 97.54 169.46 97.54 123.28 54.23 65.64"/>
          <polygon class="cls-133" points="54.49 65.64 15.84 65.64 76.48 145.94 15.84 225.57 53.49 225.57 97.14 168.6 97.81 169.46 97.81 123.28 54.49 65.64"/>
          <polygon class="cls-125" points="54.76 65.64 16.11 65.64 76.75 145.94 16.11 225.57 53.76 225.57 97.41 168.6 98.08 169.46 98.08 123.28 54.76 65.64"/>
          <polygon class="cls-120" points="55.03 65.64 16.38 65.64 77.02 145.94 16.38 225.57 54.03 225.57 97.68 168.6 98.35 169.46 98.35 123.28 55.03 65.64"/>
          <polygon class="cls-107" points="55.3 65.64 16.65 65.64 77.29 145.94 16.65 225.57 54.3 225.57 97.95 168.6 98.61 169.46 98.61 123.28 55.3 65.64"/>
          <polygon class="cls-39" points="55.57 65.64 16.92 65.64 77.56 145.94 16.92 225.57 54.57 225.57 98.22 168.6 98.88 169.46 98.88 123.28 55.57 65.64"/>
          <polygon class="cls-149" points="55.84 65.64 17.19 65.64 77.83 145.94 17.19 225.57 54.84 225.57 98.49 168.6 99.15 169.46 99.15 123.28 55.84 65.64"/>
          <polygon class="cls-52" points="56.11 65.64 17.45 65.64 78.1 145.94 17.45 225.57 55.11 225.57 98.75 168.6 99.42 169.46 99.42 123.28 56.11 65.64"/>
          <polygon class="cls-77" points="56.37 65.64 17.72 65.64 78.36 145.94 17.72 225.57 55.37 225.57 99.02 168.6 99.69 169.46 99.69 123.28 56.37 65.64"/>
          <polygon class="cls-106" points="56.64 65.64 17.99 65.64 78.63 145.94 17.99 225.57 55.64 225.57 99.29 168.6 99.96 169.46 99.96 123.28 56.64 65.64"/>
          <polygon class="cls-56" points="56.91 65.64 18.26 65.64 78.9 145.94 18.26 225.57 55.91 225.57 99.56 168.6 100.23 169.46 100.23 123.28 56.91 65.64"/>
          <polygon class="cls-166" points="57.18 65.64 18.53 65.64 79.17 145.94 18.53 225.57 56.18 225.57 99.83 168.6 100.49 169.46 100.49 123.28 57.18 65.64"/>
          <polygon class="cls-99" points="57.45 65.64 18.8 65.64 79.44 145.94 18.8 225.57 56.45 225.57 100.1 168.6 100.76 169.46 100.76 123.28 57.45 65.64"/>
          <polygon class="cls-4" points="57.72 65.64 19.07 65.64 79.71 145.94 19.07 225.57 56.72 225.57 100.37 168.6 101.03 169.46 101.03 123.28 57.72 65.64"/>
          <polygon class="cls-24" points="57.99 65.64 19.33 65.64 79.98 145.94 19.33 225.57 56.99 225.57 100.63 168.6 101.3 169.46 101.3 123.28 57.99 65.64"/>
          <polygon class="cls-93" points="58.25 65.64 19.6 65.64 80.24 145.94 19.6 225.57 57.25 225.57 100.9 168.6 101.57 169.46 101.57 123.28 58.25 65.64"/>
          <polygon class="cls-81" points="58.52 65.64 19.87 65.64 80.51 145.94 19.87 225.57 57.52 225.57 101.17 168.6 101.84 169.46 101.84 123.28 58.52 65.64"/>
          <polygon class="cls-47" points="58.79 65.64 20.14 65.64 80.78 145.94 20.14 225.57 57.79 225.57 101.44 168.6 102.11 169.46 102.11 123.28 58.79 65.64"/>
          <polygon class="cls-144" points="59.06 65.64 20.41 65.64 81.05 145.94 20.41 225.57 58.06 225.57 101.71 168.6 102.37 169.46 102.37 123.28 59.06 65.64"/>
          <polygon class="cls-152" points="59.33 65.64 20.68 65.64 81.32 145.94 20.68 225.57 58.33 225.57 101.98 168.6 102.64 169.46 102.64 123.28 59.33 65.64"/>
          <polygon class="cls-138" points="59.6 65.64 20.95 65.64 81.59 145.94 20.95 225.57 58.6 225.57 102.25 168.6 102.91 169.46 102.91 123.28 59.6 65.64"/>
          <polygon class="cls-113" points="59.86 65.64 21.21 65.64 81.86 145.94 21.21 225.57 58.87 225.57 102.51 168.6 103.18 169.46 103.18 123.28 59.86 65.64"/>
          <polygon class="cls-27" points="60.13 65.64 21.48 65.64 82.12 145.94 21.48 225.57 59.13 225.57 102.78 168.6 103.45 169.46 103.45 123.28 60.13 65.64"/>
          <polygon class="cls-13" points="60.4 65.64 21.75 65.64 82.39 145.94 21.75 225.57 59.4 225.57 103.05 168.6 103.72 169.46 103.72 123.28 60.4 65.64"/>
          <polygon class="cls-6" points="60.67 65.64 22.02 65.64 82.66 145.94 22.02 225.57 59.67 225.57 103.32 168.6 103.99 169.46 103.99 123.28 60.67 65.64"/>
          <polygon class="cls-2" points="60.94 65.64 22.29 65.64 82.93 145.94 22.29 225.57 59.94 225.57 103.59 168.6 104.25 169.46 104.25 123.28 60.94 65.64"/>
          <polygon class="cls-96" points="61.21 65.64 22.56 65.64 83.2 145.94 22.56 225.57 60.21 225.57 103.86 168.6 104.52 169.46 104.52 123.28 61.21 65.64"/>
          <polygon class="cls-63" points="61.48 65.64 22.83 65.64 83.47 145.94 22.83 225.57 60.48 225.57 104.12 168.6 104.79 169.46 104.79 123.28 61.48 65.64"/>
          <polygon class="cls-109" points="61.74 65.64 23.09 65.64 83.74 145.94 23.09 225.57 60.74 225.57 104.39 168.6 105.06 169.46 105.06 123.28 61.74 65.64"/>
          <polygon class="cls-11" points="62.01 65.64 23.36 65.64 84 145.94 23.36 225.57 61.01 225.57 104.66 168.6 105.33 169.46 105.33 123.28 62.01 65.64"/>
          <polygon class="cls-91" points="62.28 65.64 23.63 65.64 84.27 145.94 23.63 225.57 61.28 225.57 104.93 168.6 105.6 169.46 105.6 123.28 62.28 65.64"/>
          <polygon class="cls-90" points="62.55 65.64 23.9 65.64 84.54 145.94 23.9 225.57 61.55 225.57 105.2 168.6 105.87 169.46 105.87 123.28 62.55 65.64"/>
          <polygon class="cls-12" points="62.82 65.64 24.17 65.64 84.81 145.94 24.17 225.57 61.82 225.57 105.47 168.6 106.13 169.46 106.13 123.28 62.82 65.64"/>
          <polygon class="cls-34" points="63.09 65.64 24.44 65.64 85.08 145.94 24.44 225.57 62.09 225.57 105.74 168.6 106.4 169.46 106.4 123.28 63.09 65.64"/>
          <polygon class="cls-159" points="63.36 65.64 24.71 65.64 85.35 145.94 24.71 225.57 62.36 225.57 106 168.6 106.67 169.46 106.67 123.28 63.36 65.64"/>
          <polygon class="cls-142" points="63.62 65.64 24.97 65.64 85.61 145.94 24.97 225.57 62.62 225.57 106.27 168.6 106.94 169.46 106.94 123.28 63.62 65.64"/>
          <polygon class="cls-16" points="63.89 65.64 25.24 65.64 85.88 145.94 25.24 225.57 62.89 225.57 106.54 168.6 107.21 169.46 107.21 123.28 63.89 65.64"/>
          <polygon class="cls-154" points="64.16 65.64 25.51 65.64 86.15 145.94 25.51 225.57 63.16 225.57 106.81 168.6 107.48 169.46 107.48 123.28 64.16 65.64"/>
          <polygon class="cls-134" points="64.43 65.64 25.78 65.64 86.42 145.94 25.78 225.57 63.43 225.57 107.08 168.6 107.74 169.46 107.74 123.28 64.43 65.64"/>
          <polygon class="cls-92" points="64.7 65.64 26.05 65.64 86.69 145.94 26.05 225.57 63.7 225.57 107.35 168.6 108.01 169.46 108.01 123.28 64.7 65.64"/>
          <polygon class="cls-80" points="64.97 65.64 26.32 65.64 86.96 145.94 26.32 225.57 63.97 225.57 107.62 168.6 108.28 169.46 108.28 123.28 64.97 65.64"/>
          <polygon class="cls-29" points="65.24 65.64 26.58 65.64 87.23 145.94 26.58 225.57 64.24 225.57 107.88 168.6 108.55 169.46 108.55 123.28 65.24 65.64"/>
          <polygon class="cls-157" points="65.5 65.64 26.85 65.64 87.49 145.94 26.85 225.57 64.5 225.57 108.15 168.6 108.82 169.46 108.82 123.28 65.5 65.64"/>
          <polygon class="cls-130" points="65.77 65.64 27.12 65.64 87.76 145.94 27.12 225.57 64.77 225.57 108.42 168.6 109.09 169.46 109.09 123.28 65.77 65.64"/>
          <polygon class="cls-145" points="66.04 65.64 27.39 65.64 88.03 145.94 27.39 225.57 65.04 225.57 108.69 168.6 109.36 169.46 109.36 123.28 66.04 65.64"/>
          <polygon class="cls-156" points="66.31 65.64 27.66 65.64 88.3 145.94 27.66 225.57 65.31 225.57 108.96 168.6 109.62 169.46 109.62 123.28 66.31 65.64"/>
          <polygon class="cls-104" points="66.58 65.64 27.93 65.64 88.57 145.94 27.93 225.57 65.58 225.57 109.23 168.6 109.89 169.46 109.89 123.28 66.58 65.64"/>
          <polygon class="cls-38" points="66.85 65.64 28.2 65.64 88.84 145.94 28.2 225.57 65.85 225.57 109.5 168.6 110.16 169.46 110.16 123.28 66.85 65.64"/>
          <polygon class="cls-33" points="67.12 65.64 28.46 65.64 89.11 145.94 28.46 225.57 66.12 225.57 109.76 168.6 110.43 169.46 110.43 123.28 67.12 65.64"/>
          <polygon class="cls-108" points="67.38 65.64 28.73 65.64 89.37 145.94 28.73 225.57 66.38 225.57 110.03 168.6 110.7 169.46 110.7 123.28 67.38 65.64"/>
          <polygon class="cls-136" points="67.65 65.64 29 65.64 89.64 145.94 29 225.57 66.65 225.57 110.3 168.6 110.97 169.46 110.97 123.28 67.65 65.64"/>
          <polygon class="cls-151" points="67.92 65.64 29.27 65.64 89.91 145.94 29.27 225.57 66.92 225.57 110.57 168.6 111.24 169.46 111.24 123.28 67.92 65.64"/>
          <polygon class="cls-123" points="68.19 65.64 29.54 65.64 90.18 145.94 29.54 225.57 67.19 225.57 110.84 168.6 111.5 169.46 111.5 123.28 68.19 65.64"/>
          <polygon class="cls-68" points="68.46 65.64 29.81 65.64 90.45 145.94 29.81 225.57 67.46 225.57 111.11 168.6 111.77 169.46 111.77 123.28 68.46 65.64"/>
          <polygon class="cls-111" points="68.73 65.64 30.08 65.64 90.72 145.94 30.08 225.57 67.73 225.57 111.38 168.6 112.04 169.46 112.04 123.28 68.73 65.64"/>
          <polygon class="cls-51" points="68.99 65.64 30.34 65.64 90.99 145.94 30.34 225.57 68 225.57 111.64 168.6 112.31 169.46 112.31 123.28 68.99 65.64"/>
          <polygon class="cls-143" points="69.26 65.64 30.61 65.64 91.25 145.94 30.61 225.57 68.26 225.57 111.91 168.6 112.58 169.46 112.58 123.28 69.26 65.64"/>
          <polygon class="cls-44" points="69.53 65.64 30.88 65.64 91.52 145.94 30.88 225.57 68.53 225.57 112.18 168.6 112.85 169.46 112.85 123.28 69.53 65.64"/>
          <polygon class="cls-164" points="69.8 65.64 31.15 65.64 91.79 145.94 31.15 225.57 68.8 225.57 112.45 168.6 113.12 169.46 113.12 123.28 69.8 65.64"/>
          <polygon class="cls-48" points="70.07 65.64 31.42 65.64 92.06 145.94 31.42 225.57 69.07 225.57 112.72 168.6 113.38 169.46 113.38 123.28 70.07 65.64"/>
          <polygon class="cls-7" points="70.34 65.64 31.69 65.64 92.33 145.94 31.69 225.57 69.34 225.57 112.99 168.6 113.65 169.46 113.65 123.28 70.34 65.64"/>
          <polygon class="cls-26" points="70.61 65.64 31.96 65.64 92.6 145.94 31.96 225.57 69.61 225.57 113.25 168.6 113.92 169.46 113.92 123.28 70.61 65.64"/>
          <polygon class="cls-140" points="70.87 65.64 32.22 65.64 92.87 145.94 32.22 225.57 69.88 225.57 113.52 168.6 114.19 169.46 114.19 123.28 70.87 65.64"/>
          <polygon class="cls-1" points="71.14 65.64 32.49 65.64 93.13 145.94 32.49 225.57 70.14 225.57 113.79 168.6 114.46 169.46 114.46 123.28 71.14 65.64"/>
          <polygon class="cls-67" points="71.41 65.64 32.76 65.64 93.4 145.94 32.76 225.57 70.41 225.57 114.06 168.6 114.73 169.46 114.73 123.28 71.41 65.64"/>
          <polygon class="cls-85" points="71.68 65.64 33.03 65.64 93.67 145.94 33.03 225.57 70.68 225.57 114.33 168.6 115 169.46 115 123.28 71.68 65.64"/>
          <polygon class="cls-121" points="71.95 65.64 33.3 65.64 93.94 145.94 33.3 225.57 70.95 225.57 114.6 168.6 115.26 169.46 115.26 123.28 71.95 65.64"/>
          <polygon class="cls-36" points="72.22 65.64 33.57 65.64 94.21 145.94 33.57 225.57 71.22 225.57 114.87 168.6 115.53 169.46 115.53 123.28 72.22 65.64"/>
          <polygon class="cls-20" points="72.49 65.64 33.84 65.64 94.48 145.94 33.84 225.57 71.49 225.57 115.13 168.6 115.8 169.46 115.8 123.28 72.49 65.64"/>
          <polygon class="cls-115" points="72.75 65.64 34.1 65.64 94.74 145.94 34.1 225.57 71.75 225.57 115.4 168.6 116.07 169.46 116.07 123.28 72.75 65.64"/>
          <polygon class="cls-32" points="73.02 65.64 34.37 65.64 95.01 145.94 34.37 225.57 72.02 225.57 115.67 168.6 116.34 169.46 116.34 123.28 73.02 65.64"/>
          <polygon class="cls-23" points="73.29 65.64 34.64 65.64 95.28 145.94 34.64 225.57 72.29 225.57 115.94 168.6 116.61 169.46 116.61 123.28 73.29 65.64"/>
          <polygon class="cls-160" points="73.56 65.64 34.91 65.64 95.55 145.94 34.91 225.57 72.56 225.57 116.21 168.6 116.87 169.46 116.87 123.28 73.56 65.64"/>
          <polygon class="cls-83" points="73.83 65.64 35.18 65.64 95.82 145.94 35.18 225.57 72.83 225.57 116.48 168.6 117.14 169.46 117.14 123.28 73.83 65.64"/>
          <polygon class="cls-57" points="74.1 65.64 35.45 65.64 96.09 145.94 35.45 225.57 73.1 225.57 116.75 168.6 117.41 169.46 117.41 123.28 74.1 65.64"/>
          <polygon class="cls-71" points="74.37 65.64 35.71 65.64 96.36 145.94 35.71 225.57 73.37 225.57 117.01 168.6 117.68 169.46 117.68 123.28 74.37 65.64"/>
          <polygon class="cls-87" points="74.63 65.64 35.98 65.64 96.62 145.94 35.98 225.57 73.63 225.57 117.28 168.6 117.95 169.46 117.95 123.28 74.63 65.64"/>
          <polygon class="cls-161" points="74.9 65.64 36.25 65.64 96.89 145.94 36.25 225.57 73.9 225.57 117.55 168.6 118.22 169.46 118.22 123.28 74.9 65.64"/>
          <polygon class="cls-40" points="75.17 65.64 36.52 65.64 97.16 145.94 36.52 225.57 74.17 225.57 117.82 168.6 118.49 169.46 118.49 123.28 75.17 65.64"/>
          <polygon class="cls-55" points="75.44 65.64 36.79 65.64 97.43 145.94 36.79 225.57 74.44 225.57 118.09 168.6 118.75 169.46 118.75 123.28 75.44 65.64"/>
          <polygon class="cls-22" points="75.71 65.64 37.06 65.64 97.7 145.94 37.06 225.57 74.71 225.57 118.36 168.6 119.02 169.46 119.02 123.28 75.71 65.64"/>
          <polygon class="cls-25" points="75.98 65.64 37.33 65.64 97.97 145.94 37.33 225.57 74.98 225.57 118.63 168.6 119.29 169.46 119.29 123.28 75.98 65.64"/>
          <polygon class="cls-28" points="76.25 65.64 37.59 65.64 98.24 145.94 37.59 225.57 75.25 225.57 118.89 168.6 119.56 169.46 119.56 123.28 76.25 65.64"/>
          <polygon class="cls-119" points="76.51 65.64 37.86 65.64 98.5 145.94 37.86 225.57 75.51 225.57 119.16 168.6 119.83 169.46 119.83 123.28 76.51 65.64"/>
          <polygon class="cls-98" points="76.78 65.64 38.13 65.64 98.77 145.94 38.13 225.57 75.78 225.57 119.43 168.6 120.1 169.46 120.1 123.28 76.78 65.64"/>
          <polygon class="cls-50" points="77.05 65.64 38.4 65.64 99.04 145.94 38.4 225.57 76.05 225.57 119.7 168.6 120.37 169.46 120.37 123.28 77.05 65.64"/>
          <polygon class="cls-61" points="77.32 65.64 38.67 65.64 99.31 145.94 38.67 225.57 76.32 225.57 119.97 168.6 120.63 169.46 120.63 123.28 77.32 65.64"/>
          <polygon class="cls-137" points="77.59 65.64 38.94 65.64 99.58 145.94 38.94 225.57 76.59 225.57 120.24 168.6 120.9 169.46 120.9 123.28 77.59 65.64"/>
          <polygon class="cls-43" points="77.86 65.64 39.21 65.64 99.85 145.94 39.21 225.57 76.86 225.57 120.51 168.6 121.17 169.46 121.17 123.28 77.86 65.64"/>
          <polygon class="cls-58" points="78.12 65.64 39.47 65.64 100.12 145.94 39.47 225.57 77.13 225.57 120.77 168.6 121.44 169.46 121.44 123.28 78.12 65.64"/>
          <polygon class="cls-127" points="78.39 65.64 39.74 65.64 100.38 145.94 39.74 225.57 77.39 225.57 121.04 168.6 121.71 169.46 121.71 123.28 78.39 65.64"/>
          <polygon class="cls-65" points="78.66 65.64 40.01 65.64 100.65 145.94 40.01 225.57 77.66 225.57 121.31 168.6 121.98 169.46 121.98 123.28 78.66 65.64"/>
          <polygon class="cls-148" points="78.93 65.64 40.28 65.64 100.92 145.94 40.28 225.57 77.93 225.57 121.58 168.6 122.25 169.46 122.25 123.28 78.93 65.64"/>
          <polygon class="cls-70" points="79.2 65.64 40.55 65.64 101.19 145.94 40.55 225.57 78.2 225.57 121.85 168.6 122.51 169.46 122.51 123.28 79.2 65.64"/>
          <polygon class="cls-129" points="79.47 65.64 40.82 65.64 101.46 145.94 40.82 225.57 78.47 225.57 122.12 168.6 122.78 169.46 122.78 123.28 79.47 65.64"/>
          <polygon class="cls-95" points="79.74 65.64 41.09 65.64 101.73 145.94 41.09 225.57 78.74 225.57 122.38 168.6 123.05 169.46 123.05 123.28 79.74 65.64"/>
          <polygon class="cls-84" points="80 65.64 41.35 65.64 102 145.94 41.35 225.57 79.01 225.57 122.65 168.6 123.32 169.46 123.32 123.28 80 65.64"/>
          <polygon class="cls-163" points="80.27 65.64 41.62 65.64 102.26 145.94 41.62 225.57 79.27 225.57 122.92 168.6 123.59 169.46 123.59 123.28 80.27 65.64"/>
          <polygon class="cls-100" points="80.54 65.64 41.89 65.64 102.53 145.94 41.89 225.57 79.54 225.57 123.19 168.6 123.86 169.46 123.86 123.28 80.54 65.64"/>
          <polygon class="cls-45" points="80.81 65.64 42.16 65.64 102.8 145.94 42.16 225.57 79.81 225.57 123.46 168.6 124.13 169.46 124.13 123.28 80.81 65.64"/>
          <polygon class="cls-103" points="81.08 65.64 42.43 65.64 103.07 145.94 42.43 225.57 80.08 225.57 123.73 168.6 124.39 169.46 124.39 123.28 81.08 65.64"/>
          <polygon class="cls-37" points="81.35 65.64 42.7 65.64 103.34 145.94 42.7 225.57 80.35 225.57 124 168.6 124.66 169.46 124.66 123.28 81.35 65.64"/>
          <polygon class="cls-18" points="81.62 65.64 42.97 65.64 103.61 145.94 42.97 225.57 80.62 225.57 124.26 168.6 124.93 169.46 124.93 123.28 81.62 65.64"/>
          <polygon class="cls-124" points="81.88 65.64 43.23 65.64 103.87 145.94 43.23 225.57 80.88 225.57 124.53 168.6 125.2 169.46 125.2 123.28 81.88 65.64"/>
          <polygon class="cls-132" points="82.15 65.64 43.5 65.64 104.14 145.94 43.5 225.57 81.15 225.57 124.8 168.6 125.47 169.46 125.47 123.28 82.15 65.64"/>
          <polygon class="cls-59" points="82.42 65.64 43.77 65.64 104.41 145.94 43.77 225.57 81.42 225.57 125.07 168.6 125.74 169.46 125.74 123.28 82.42 65.64"/>
          <polygon class="cls-49" points="82.69 65.64 44.04 65.64 104.68 145.94 44.04 225.57 81.69 225.57 125.34 168.6 126 169.46 126 123.28 82.69 65.64"/>
        </g>
        <path class="cls-128" d="m123.64,145.94l-60.64-80.3h38.65l43.31,57.64,42.98-57.64h37.98l-60.64,79.97,61.31,79.97h-38.32l-43.98-56.98-43.65,56.98h-37.65l60.64-79.63Z"/>
      </g>
      <path class="cls-128" d="m297.58,65.64h22.99v31.65h-19.33c-14.99,0-25.32,8.33-25.32,27.66v100.62h-33.32v-102.96c0-34.65,19.66-56.98,54.98-56.98Z"/>
      <path class="cls-128" d="m329.56,145.94c0-51.98,34.65-83.97,81.63-83.97s81.96,32.99,81.96,80.97-33.99,82.63-86.63,82.63h-13l-10-31.65h20.66c36.32,0,55.31-23.66,55.31-51.31s-21.32-48.65-47.98-48.65-48.65,18.66-48.65,52.98v145.27h-33.32v-146.27Z"/>
      <path class="cls-128" d="m516.82,0h33.32v225.57h-33.32V0Z"/>
      <path class="cls-128" d="m575.13,208.91c0-11.33,9.33-19.66,20.99-19.66s20.66,8.33,20.66,19.66c0,11.99-9,20.32-20.66,20.32s-20.99-8.33-20.99-20.32Z"/>
      <path class="cls-128" d="m638.1,166.93V29.32h33.32v36.32h48.65v31.65h-48.65v65.64c0,21.66,10.66,30.99,29.99,30.99h23.66l-9.66,31.65h-18.99c-38.32,0-58.31-22.66-58.31-58.64Z"/>
      <path class="cls-128" d="m731.4,145.61c0-46.98,34.32-83.63,84.3-83.63s84.3,36.65,84.3,83.63-34.32,83.63-84.3,83.63-84.3-36.32-84.3-83.63Zm84.3,51.31c30.99,0,50.31-23.66,50.31-51.31s-19.33-51.65-50.31-51.65-50.65,23.99-50.65,51.65,19.66,51.31,50.65,51.31Z"/>
    </g>
  </g>
</svg>