<?xml version="1.0" encoding="utf-8"?>
<!-- Generator: Adobe Illustrator 21.0.0, SVG Export Plug-In . SVG Version: 6.00 Build 0)  -->
<svg version="1.1" id="Warstwa_2" xmlns="http://www.w3.org/2000/svg" xmlns:xlink="http://www.w3.org/1999/xlink" x="0px" y="0px"
	 viewBox="0 0 12199 5000" style="enable-background:new 0 0 12199 5000;" xml:space="preserve">
<style type="text/css">
	.st0{fill:#FFFFFF;}
	.st1{fill:url(#SVGID_1_);}
	.st2{fill:url(#SVGID_2_);}
	.st3{fill:url(#SVGID_3_);}
	.st4{fill:url(#SVGID_4_);}
	.st5{fill:url(#SVGID_5_);}
	.st6{fill:url(#SVGID_6_);}
	.st7{fill:url(#SVGID_7_);}
</style>
<g>
	<path class="st0" d="M4801.3,2210.5l281.1-571.5h473.7l-480.8,852.5l493.8,866.7h-478.4l-289.4-582.1l-289.4,582.1h-477.2
		l492.6-866.7L4047.7,1639h472.5L4801.3,2210.5z"/>
	<path class="st0" d="M6342.4,2749.7H6118v608.5h-414.6V1639h676.9c203.9,0,363.4,45.2,478.4,135.6
		c115,90.4,172.5,218.1,172.5,383.2c0,119.5-24.2,218.5-72.7,297.2c-48.4,78.6-124.2,142.3-227.4,191l359.1,694.6v17.7H6646
		L6342.4,2749.7z M6118,2430.5h262.2c78.8,0,138-20.7,177.8-62c39.8-41.3,59.6-99,59.6-173c0-74-20.1-132-60.3-174.2
		s-99.2-63.2-177.2-63.2H6118V2430.5z"/>
	<path class="st0" d="M7697,2775.8v582.4h-414.6V1639h686.3c131.5,0,247.8,24.2,349,72.7s179.6,117.4,235.1,206.8
		c55.5,89.4,83.3,190.8,83.3,304.3c0,167.8-60.1,301.9-180.1,402.4c-120.1,100.5-284.9,150.6-494.4,150.6H7697z M7697,2454.8h271.7
		c80.3,0,141.5-20.1,183.7-60.3c42.1-40.2,63.2-96.9,63.2-170.2c0-80.4-21.7-144.6-65-192.7c-43.3-48.1-102.4-72.5-177.2-73.3H7697
		V2454.8z"/>
	<path class="st0" d="M9271.2,3039H9993v319.2H8856.6V1639h414.6V3039z"/>
	<linearGradient id="SVGID_1_" gradientUnits="userSpaceOnUse" x1="10385.7041" y1="3039.0349" x2="10385.7041" y2="3371.3079">
		<stop  offset="0" style="stop-color:#290A68"/>
		<stop  offset="1" style="stop-color:#C332EC"/>
	</linearGradient>
	<path class="st1" d="M10211.7,3208.2c0-48.3,14.3-88.6,43.1-120.8c28.8-32.2,71.9-48.3,129.3-48.3c57.5,0,101.1,16.1,130.8,48.3
		c29.7,32.2,44.6,72.5,44.6,120.8c0,46.3-14.9,85.1-44.6,116.3c-29.7,31.2-73.4,46.8-130.8,46.8c-57.5,0-100.6-15.6-129.3-46.8
		C10226.1,3293.3,10211.7,3254.5,10211.7,3208.2z"/>
	<g>
		<linearGradient id="SVGID_2_" gradientUnits="userSpaceOnUse" x1="10902.4375" y1="2200.2297" x2="10902.4375" y2="3358.241">
			<stop  offset="0" style="stop-color:#4024F3"/>
			<stop  offset="1" style="stop-color:#071A45"/>
		</linearGradient>
		<path class="st2" d="M11008.6,2200.2v224.4h156.6v179.2h-156.6v458.2c0,33.9,6.5,58.3,19.5,73c13,14.7,37.8,22.1,74.5,22.1
			c27.1,0,51-2,71.9-5.9v185c-48,14.6-97.3,22-148.1,22c-171.5,0-259-86.7-262.3-260.2v-494.1h-133.7v-179.2h133.7v-224.4H11008.6z"
			/>
		<linearGradient id="SVGID_3_" gradientUnits="userSpaceOnUse" x1="11671.5996" y1="2409.0769" x2="11671.5996" y2="3358.241">
			<stop  offset="0" style="stop-color:#4024F3"/>
			<stop  offset="1" style="stop-color:#071A45"/>
		</linearGradient>
		<path class="st3" d="M11237.9,2875.2c0-90.8,17.5-171.7,52.5-242.8c35-71.1,85.3-126,151.1-165c65.7-38.9,142-58.4,228.9-58.4
			c123.5,0,224.4,37.8,302.5,113.4c78.1,75.6,121.7,178.2,130.7,307.9l1.7,62.6c0,140.4-39.2,253.1-117.6,338
			c-78.4,84.9-183.6,127.3-315.7,127.3s-237.4-42.3-316.1-126.9s-118-199.6-118-345.2V2875.2z M11482.5,2892.5
			c0,86.7,16.3,153.1,49.1,198.9c32.7,45.9,79.6,68.8,140.5,68.8c59.2,0,105.5-22.6,138.8-68c33.3-45.3,49.9-117.8,49.9-217.5
			c0-85-16.7-150.9-49.9-197.7c-33.3-46.7-80.1-70.1-140.5-70.1c-59.8,0-106.1,23.2-138.8,69.7
			C11498.8,2723.2,11482.5,2795.1,11482.5,2892.5z"/>
	</g>
</g>
<linearGradient id="SVGID_4_" gradientUnits="userSpaceOnUse" x1="1430.4972" y1="278.5789" x2="1430.4972" y2="4737.8916">
	<stop  offset="0.5025" style="stop-color:#4E1587"/>
	<stop  offset="1" style="stop-color:#C332EC"/>
</linearGradient>
<path class="st4" d="M0,288l1171.9-9.4c0,0,1689.1,1170.1,1689.1,2233.6S1171.9,4737.9,1171.9,4737.9L0,4736
	c0,0,2160.2-1517.8,2160.2-2227.7S0,288,0,288z"/>
<linearGradient id="SVGID_5_" gradientUnits="userSpaceOnUse" x1="1430.4972" y1="278.5789" x2="1430.4972" y2="4053.9448">
	<stop  offset="0" style="stop-color:#290A68"/>
	<stop  offset="1" style="stop-color:#C332EC"/>
</linearGradient>
<path class="st5" d="M1941.8,2013.2c19.8,21,38.7,45.3,56.6,73.1c567.3,879.8,108,1765.1-12.2,1967.6
	c432.1-427,874.8-997.4,874.8-1541.8c0-1063.4-1689.1-2233.6-1689.1-2233.6L0,288C0,288,1393,1261.9,1941.8,2013.2z"/>
<g>
	<linearGradient id="SVGID_6_" gradientUnits="userSpaceOnUse" x1="3801.531" y1="278.5789" x2="3801.531" y2="2200.2297">
		<stop  offset="0" style="stop-color:#4024F3"/>
		<stop  offset="1" style="stop-color:#071A45"/>
	</linearGradient>
	<path class="st6" d="M2959.6,2200.2c421-766.2,2062.8-1919.7,2062.8-1919.7l-1171.9-1.9c0,0-769.6,529.6-1269.8,1200.8
		C2751.5,1708.4,2891.5,1953.9,2959.6,2200.2z"/>
	<linearGradient id="SVGID_7_" gradientUnits="userSpaceOnUse" x1="3803.7307" y1="2818.5635" x2="3803.7307" y2="4737.8916">
		<stop  offset="0" style="stop-color:#4024F3"/>
		<stop  offset="1" style="stop-color:#071A45"/>
	</linearGradient>
	<path class="st7" d="M2961.1,2818.6c-67,245.7-205.9,490.3-376,718.5c500.3,670.8,1265.4,1200.8,1265.4,1200.8l1171.9-9.4
		C5022.4,4728.5,3384.4,3583.3,2961.1,2818.6z"/>
</g>
</svg>
