<?xml version="1.0" standalone="no"?>
<!DOCTYPE svg PUBLIC "-//W3C//DTD SVG 20010904//EN"
 "http://www.w3.org/TR/2001/REC-SVG-20010904/DTD/svg10.dtd">
<svg version="1.0" xmlns="http://www.w3.org/2000/svg"
 width="501.000000pt" height="501.000000pt" viewBox="0 0 501.000000 501.000000"
 preserveAspectRatio="xMidYMid meet">
<metadata>
Created by potrace 1.14, written by Peter Selinger 2001-2017
</metadata>
<g transform="translate(0.000000,501.000000) scale(0.100000,-0.100000)"
fill="#000000" stroke="none">
<path d="M26 4703 c16 -13 110 -83 209 -156 100 -73 188 -138 195 -145 8 -7
63 -49 121 -95 135 -105 173 -135 219 -172 20 -16 56 -46 80 -65 24 -19 48
-40 54 -45 6 -6 56 -48 111 -94 92 -76 166 -143 345 -306 171 -157 382 -382
503 -537 220 -282 304 -487 272 -663 -50 -274 -371 -682 -929 -1180 -44 -38
-84 -75 -90 -80 -22 -21 -273 -231 -310 -260 -21 -16 -44 -35 -50 -40 -6 -6
-29 -24 -51 -40 -22 -17 -44 -35 -50 -41 -10 -11 -115 -92 -255 -197 -41 -31
-79 -60 -85 -65 -5 -4 -41 -31 -80 -60 -38 -28 -74 -55 -80 -60 -5 -4 -40 -29
-77 -56 -37 -26 -70 -51 -72 -55 -3 -4 253 -7 569 -7 495 1 577 3 592 16 10 8
61 49 113 91 52 42 105 85 116 95 12 11 46 39 75 64 69 58 208 180 284 249 72
66 457 452 500 501 206 238 336 423 435 620 38 76 85 189 96 230 2 8 12 51 23
95 84 349 2 690 -260 1085 -66 100 -217 297 -267 348 -9 10 -37 40 -60 67 -86
98 -346 357 -473 470 -24 22 -67 60 -94 85 -28 25 -79 70 -115 100 -35 30 -71
62 -80 70 -8 8 -36 31 -60 50 -25 19 -49 40 -55 46 -5 6 -52 44 -103 85 l-93
74 -576 0 -576 1 29 -23z"/>
<path d="M3783 4683 c-116 -94 -159 -129 -183 -150 -108 -91 -194 -166 -205
-176 -6 -7 -38 -34 -70 -62 -124 -106 -395 -369 -536 -520 -66 -71 -219 -253
-219 -261 0 -5 80 -115 91 -124 34 -30 249 -423 249 -456 0 -18 33 -94 41 -94
5 0 9 5 9 11 0 6 14 30 30 54 17 24 30 48 30 53 0 6 3 12 8 14 4 2 32 37 64
78 58 77 64 85 145 180 96 112 472 480 603 590 14 11 39 33 55 48 17 16 84 73
150 128 66 54 122 101 125 104 3 3 36 30 75 60 90 71 90 71 157 125 52 41 469
356 528 398 14 9 33 23 43 30 15 11 -85 13 -560 13 l-578 0 -52 -43z"/>
<path d="M2921 2112 c-62 -175 -161 -355 -292 -532 -35 -47 -57 -86 -53 -93
10 -17 75 -97 99 -123 11 -12 47 -52 80 -90 168 -192 582 -583 835 -788 25
-20 54 -45 65 -55 11 -9 56 -46 100 -82 l79 -64 573 -1 c315 0 573 2 573 5 0
4 -10 12 -22 20 -33 21 -370 271 -386 287 -7 8 -17 14 -21 14 -4 0 -18 10 -31
22 -12 12 -53 44 -90 72 -68 52 -108 83 -184 146 -24 19 -63 51 -87 70 -24 19
-62 51 -85 70 -22 19 -60 51 -84 70 -23 19 -55 46 -70 60 -15 14 -43 38 -61
54 -145 126 -207 184 -374 351 -218 217 -241 243 -352 382 -74 93 -117 154
-169 240 l-19 32 -24 -67z"/>
</g>
</svg>
