<svg version="1.2" xmlns="http://www.w3.org/2000/svg" viewBox="0 0 32 32" width="32" height="32">
	<style>
		.s0 { fill: #dd2e44 } 
	</style>
	<g>
		<path class="s0" d="m12.08 23.57c-0.26-0.44-0.25-0.99 0.03-1.42l3.91-5.9-5.33-4.57c-0.5-0.43-0.61-1.14-0.28-1.7l3.83-6.38c-1.49-1.15-3.34-1.85-5.37-1.85-4.84 0-8.77 3.92-8.77 8.77q0.01 1.03 0.24 1.99c1.22 7.57 9.63 15.55 15.66 17.74q0.03-0.01 0.07-0.03z"/>
		<path class="s0" d="m23.13 1.75c-2.46 0-4.67 1.02-6.26 2.65l-3.59 5.99 5.37 4.6c0.51 0.44 0.61 1.19 0.24 1.75l-4.09 6.18 3.7 6.17c5.63-3.14 12.1-10.01 13.16-16.58q0.23-0.96 0.24-1.99c0-4.85-3.93-8.77-8.77-8.77z"/>
	</g>
</svg>