<svg version="1.2" xmlns="http://www.w3.org/2000/svg" viewBox="0 0 32 32" width="32" height="32">
	<style>
		.s0 { fill: #4289c1 } 
		.s1 { fill: #fee7b8 } 
		.s2 { fill: #ff7892 } 
		.s3 { fill: #da2f47 } 
		.s4 { fill: #664500 } 
		.s5 { fill: #bb1a34 } 
	</style>
	<path fill-rule="evenodd" class="s0" d="m25.78 4.44c-0.99 0-1.78-0.79-1.78-1.77 0-0.99 0.79-1.78 1.78-1.78 0.98 0 1.78 0.79 1.78 1.78 0 0.98-0.8 1.77-1.78 1.77z"/>
	<path fill-rule="evenodd" class="s0" d="m29.33 9.78c-1.47 0-2.66-1.19-2.66-2.67 0-1.47 1.19-2.67 2.66-2.67 1.48 0 2.67 1.2 2.67 2.67 0 1.48-1.19 2.67-2.67 2.67z"/>
	<path fill-rule="evenodd" class="s0" d="m29.33 6.22c-1.47 0-2.66-1.19-2.66-2.66 0-1.48 1.19-2.67 2.66-2.67 1.48 0 2.67 1.19 2.67 2.67 0 1.47-1.19 2.66-2.67 2.66z"/>
	<path fill-rule="evenodd" class="s0" d="m6.22 4.44c-0.98 0-1.78-0.79-1.78-1.77 0-0.99 0.8-1.78 1.78-1.78 0.99 0 1.78 0.79 1.78 1.78 0 0.98-0.79 1.77-1.78 1.77z"/>
	<path fill-rule="evenodd" class="s0" d="m2.67 9.78c-1.48 0-2.67-1.19-2.67-2.67 0-1.47 1.19-2.67 2.67-2.67 1.47 0 2.66 1.2 2.66 2.67 0 1.48-1.19 2.67-2.66 2.67z"/>
	<path fill-rule="evenodd" class="s0" d="m2.67 6.22c-1.48 0-2.67-1.19-2.67-2.66 0-1.48 1.19-2.67 2.67-2.67 1.47 0 2.66 1.19 2.66 2.67 0 1.47-1.19 2.66-2.66 2.66z"/>
	<path fill-rule="evenodd" class="s1" d="m16 32c-8.85 0-16-7.15-16-16 0-8.85 7.15-16 16-16 8.85 0 16 7.15 16 16 0 8.85-7.15 16-16 16z"/>
	<path fill-rule="evenodd" class="s0" d="m27.11 6.22c-1.23 0-2.22-0.99-2.22-2.22 0-1.23 0.99-2.22 2.22-2.22 1.23 0 2.22 0.99 2.22 2.22 0 1.23-0.99 2.22-2.22 2.22z"/>
	<path fill-rule="evenodd" class="s0" d="m28.44 8c-0.98 0-1.77-0.79-1.77-1.78 0-0.98 0.79-1.78 1.77-1.78 0.99 0 1.78 0.8 1.78 1.78 0 0.99-0.79 1.78-1.78 1.78z"/>
	<path fill-rule="evenodd" class="s0" d="m4.89 6.22c-1.23 0-2.22-0.99-2.22-2.22 0-1.23 0.99-2.22 2.22-2.22 1.23 0 2.22 0.99 2.22 2.22 0 1.23-0.99 2.22-2.22 2.22z"/>
	<path fill-rule="evenodd" class="s0" d="m3.56 8c-0.99 0-1.78-0.79-1.78-1.78 0-0.98 0.79-1.78 1.78-1.78 0.98 0 1.77 0.8 1.77 1.78 0 0.99-0.79 1.78-1.77 1.78z"/>
	<path fill-rule="evenodd" class="s2" d="m6.16 22.22c-1.97 0-3.56-1.59-3.56-3.55 0-1.97 1.59-3.56 3.56-3.56 1.97 0 3.56 1.59 3.56 3.56 0 1.96-1.59 3.55-3.56 3.55z"/>
	<path fill-rule="evenodd" class="s2" d="m25.72 22.22c-1.97 0-3.56-1.59-3.56-3.55 0-1.97 1.59-3.56 3.56-3.56 1.96 0 3.55 1.59 3.55 3.56 0 1.96-1.59 3.55-3.55 3.55z"/>
	<path class="s3" d="m24.3 21c-0.16-0.14-0.4-0.15-0.57-0.02-0.03 0.02-3.48 2.58-7.73 2.58-4.24 0-7.7-2.56-7.73-2.58-0.17-0.13-0.41-0.12-0.57 0.02-0.16 0.15-0.19 0.38-0.08 0.56 0.11 0.19 2.86 6 8.38 6 5.52 0 8.27-5.81 8.38-6 0.11-0.18 0.08-0.41-0.08-0.56z"/>
	<path fill-rule="evenodd" class="s4" d="m10.22 13.33c-1.23 0-2.22-1.39-2.22-3.11 0-1.72 0.99-3.11 2.22-3.11 1.23 0 2.22 1.39 2.22 3.11 0 1.72-0.99 3.11-2.22 3.11z"/>
	<path fill-rule="evenodd" class="s4" d="m22.67 13.33c-1.23 0-2.23-1.39-2.23-3.11 0-1.72 1-3.11 2.23-3.11 1.23 0 2.22 1.39 2.22 3.11 0 1.72-0.99 3.11-2.22 3.11z"/>
	<path fill-rule="evenodd" class="s5" d="m16.44 20.44c-1.72 0-3.11-1.39-3.11-3.11 0-1.72 1.39-3.11 3.11-3.11 1.72 0 3.12 1.39 3.12 3.11 0 1.72-1.4 3.11-3.12 3.11z"/>
</svg>