<svg version="1.2" xmlns="http://www.w3.org/2000/svg" viewBox="0 0 32 32" width="32" height="32">
	<style>
		.s0 { fill: #50a5e6 } 
		.s1 { fill: #1c6399 } 
		.s2 { fill: #ffffff } 
		.s3 { fill: #bbddf5 } 
	</style>
	<path fill-rule="evenodd" class="s0" d="m16 32c-8.85 0-16-7.15-16-16 0-8.85 7.15-16 16-16 8.85 0 16 7.15 16 16 0 8.85-7.15 16-16 16z"/>
	<path fill-rule="evenodd" class="s1" d="m10.65 16.61c-1.23 0-2.22-1.39-2.22-3.11 0-1.72 0.99-3.11 2.22-3.11 1.23 0 2.23 1.39 2.23 3.11 0 1.72-1 3.11-2.23 3.11z"/>
	<path fill-rule="evenodd" class="s1" d="m21.32 16.61c-1.23 0-2.22-1.39-2.22-3.11 0-1.72 0.99-3.11 2.22-3.11 1.23 0 2.22 1.39 2.22 3.11 0 1.72-0.99 3.11-2.22 3.11z"/>
	<path class="s2" d="m22.21 19.41c1.96 0 3.55 1.59 3.55 3.55 0 1.97-1.59 3.56-3.55 3.56h-12.45c-1.96 0-3.55-1.59-3.55-3.56 0-1.96 1.59-3.55 3.55-3.55z"/>
	<path class="s1" d="m22.21 18.5h-12.45c-2.45 0-4.44 1.99-4.44 4.44 0 2.45 1.99 4.45 4.44 4.45h12.45c2.45 0 4.44-2 4.44-4.45 0-2.45-1.99-4.44-4.44-4.44zm0 1.78c1.32 0 2.41 0.96 2.62 2.22h-3.07v-2.22zm-1.33 0v2.22h-2.67v-2.22zm-3.55 0v2.22h-2.67v-2.22zm-3.55 0v2.22h-2.67v-2.22zm-4 0h0.44v2.22h-3.06c0.21-1.26 1.3-2.22 2.62-2.22zm0 5.33c-1.32 0-2.41-0.96-2.62-2.22h3.06v2.22zm1.34 0v-2.22h2.66v2.22zm3.56 0v-2.22h2.67v2.22zm3.55 0v-2.22h2.67v2.22zm4 0h-0.45v-2.22h3.07c-0.21 1.26-1.3 2.22-2.62 2.22z"/>
	<path class="s3" d="m31.78 13.5c0-0.4-0.04 1.99-3.33 3.02-1.3 0.4-1.15 2.29-1.13 2.8 0.07 1.75 0.36 3.46 0.45 3.9 0.08 0.45 0.45 1.88 0.53 2.3 0.09 0.48 0.21 2.14 0.3 2.56 0.1 0.5 0.19 0.86 0.26 1.24 0.17 0.83 0.38 1.42 0.74 1.42 0.37 0 0.37-1 0.54-1.82 0.07-0.38 0.09-0.7 0.19-1.2 0.08-0.42 0.32-3.24 0.41-3.7 0.09-0.43 0.57-2.28 0.65-2.72 0.09-0.45 0.36-2.22 0.43-2.65 0.43-2.58-0.04-5.15-0.04-5.15zm-31.5 5.5c0-0.26 0.54 1.03 1.02 1.32 0.61 0.37 1.09 1.07 1.81 1.68 0.72 0.61 0.72 1.75 0.69 2.31-0.12 2.36-0.43 4.71-0.5 5-0.07 0.29-0.32 2.51-0.65 2.51-0.33 0-0.49-0.79-0.61-1.32l-0.2-0.87q-0.08-0.41-0.18-0.87c-0.06-0.28-0.37-2.3-0.44-2.59-0.07-0.29-0.36-1.46-0.43-1.74-0.07-0.31-0.1-0.61-0.17-0.88-0.29-1.15-0.34-4.55-0.34-4.55z"/>
	<path class="s1" d="m5.32 10.11c-0.49 0-0.89-0.4-0.89-0.89 0-0.49 0.4-0.88 0.89-0.89 0.14 0 3.17-0.07 5.51-3.2 0.3-0.39 0.85-0.47 1.25-0.17 0.39 0.29 0.47 0.85 0.18 1.24-2.91 3.87-6.78 3.91-6.94 3.91zm21.33 0c-0.16 0-4.03-0.04-6.93-3.91-0.29-0.39-0.21-0.95 0.18-1.24 0.39-0.3 0.95-0.22 1.24 0.17 2.35 3.13 5.39 3.2 5.52 3.2 0.49 0.01 0.88 0.41 0.88 0.9 0 0.49-0.4 0.88-0.89 0.88z"/>
	<path class="s3" d="m21.57 1c0 0-0.88-0.37-1.17-0.46-0.26-0.08-1.06-0.25-1.56-0.34-0.55-0.11-1.15-0.11-1.15-0.11 0 0-0.03 0.36 0.1 0.91 0.11 0.45 0.36 1.07 0.41 1.39 0.05 0.35 0.06 0.76 0.12 1.2q0.09 0.57 0.18 1.19c0.06 0.4 0.16 0.8 0.22 1.19 0.06 0.42 0.09 0.83 0.15 1.21 0.07 0.44-0.01 0.87 0.04 1.21 0.11 0.72 0.3 1.72 0.5 1.72 0.21 0 0.39-0.9 0.49-1.62 0.06-0.35-0.02-0.62 0.04-1.06q0.08-0.56 0.17-1.17 0.09-0.59 0.17-1.18c0.06-0.41 0.05-0.81 0.11-1.19 0.07-0.44 0.32-0.98 0.38-1.33 0.1-0.72 0.8-1.56 0.8-1.56zm-16.35 7.34c0 0 0.65-0.15 1.27-0.28 0.4-0.08 0.72-0.41 1.38-0.65 0.69-0.25 1.13-0.46 1.13-0.46 0 0 0.05 1.16-0.1 1.74-0.12 0.46-0.19 1.07-0.24 1.4-0.07 0.36-0.1 0.79-0.18 1.25-0.07 0.4-0.19 0.81-0.27 1.24-0.07 0.41-0.12 0.9-0.19 1.32-0.08 0.43-0.1 0.8-0.17 1.19-0.08 0.46-0.02 0.51-0.08 0.88-0.13 0.74-0.15 0.64-0.19 1.05-0.04 0.41-0.35 0.46-0.48 0.16-0.13-0.3 0.01-0.46-0.12-1.22-0.06-0.36-0.29-1.32-0.37-1.75-0.07-0.41-0.16-1.06-0.23-1.48-0.08-0.43-0.1-1.12-0.17-1.52-0.07-0.46-0.2-0.75-0.26-1.11-0.13-0.75-0.73-1.76-0.73-1.76z"/>
</svg>