<svg version="1.2" xmlns="http://www.w3.org/2000/svg" viewBox="0 0 32 32" width="32" height="32">
	<style>
		.s0 { fill: #ffcc4d } 
		.s1 { fill: #664500 } 
		.s2 { fill: #ffffff } 
	</style>
	<path fill-rule="evenodd" class="s0" d="m16 32c-8.85 0-16-7.15-16-16 0-8.85 7.15-16 16-16 8.85 0 16 7.15 16 16 0 8.85-7.15 16-16 16z"/>
	<path fill-rule="evenodd" class="s1" d="m10.67 15.11c-1.23 0-2.23-1.39-2.23-3.11 0-1.72 1-3.11 2.23-3.11 1.23 0 2.22 1.39 2.22 3.11 0 1.72-0.99 3.11-2.22 3.11z"/>
	<path fill-rule="evenodd" class="s1" d="m21.33 15.11c-1.23 0-2.22-1.39-2.22-3.11 0-1.72 0.99-3.11 2.22-3.11 1.23 0 2.23 1.39 2.23 3.11 0 1.72-1 3.11-2.23 3.11z"/>
	<path class="s2" d="m22.22 18.67c1.97 0 3.56 1.59 3.56 3.55 0 1.97-1.59 3.56-3.56 3.56h-12.44c-1.97 0-3.56-1.59-3.56-3.56 0-1.96 1.59-3.55 3.56-3.55z"/>
	<path class="s1" d="m22.22 17.78h-12.44c-2.45 0-4.45 1.99-4.45 4.44 0 2.45 2 4.45 4.45 4.45h12.44c2.45 0 4.45-2 4.45-4.45 0-2.45-2-4.44-4.45-4.44zm0 1.78c1.32 0 2.41 0.96 2.62 2.22h-3.06v-2.22zm-1.34 0v2.22h-2.66v-2.22zm-3.56 0v2.22h-2.66v-2.22zm-3.56 0v2.22h-2.67v-2.22zm-4 0h0.45v2.22h-3.07c0.21-1.26 1.31-2.22 2.62-2.22zm0 5.33c-1.31 0-2.41-0.96-2.62-2.22h3.07v2.22zm1.33 0v-2.22h2.67v2.22zm3.55 0v-2.22h2.67v2.22zm3.56 0v-2.22h2.66v2.22zm4 0h-0.44v-2.22h3.06c-0.21 1.26-1.3 2.22-2.62 2.22z"/>
</svg>