<svg version="1.2" xmlns="http://www.w3.org/2000/svg" viewBox="0 0 32 32" width="32" height="32">
	<style>
		.s0 { fill: #ffcc4d } 
		.s1 { fill: #664500 } 
		.s2 { fill: #ffffff } 
	</style>
	<path fill-rule="evenodd" class="s0" d="m16 32c-8.85 0-16-7.15-16-16 0-8.85 7.15-16 16-16 8.85 0 16 7.15 16 16 0 8.85-7.15 16-16 16z"/>
	<path class="s1" d="m16 18.67c-3.22 0-5.36-0.38-8-0.89-0.6-0.12-1.78 0-1.78 1.78 0 3.55 4.09 8 9.78 8 5.69 0 9.78-4.45 9.78-8 0-1.78-1.18-1.9-1.78-1.78-2.64 0.51-4.78 0.89-8 0.89z"/>
	<path class="s2" d="m8 19.56c0 0 2.67 0.88 8 0.88 5.33 0 8-0.88 8-0.88 0 0-1.78 3.55-8 3.55-6.22 0-8-3.55-8-3.55z"/>
	<path fill-rule="evenodd" class="s1" d="m10.67 15.11c-1.23 0-2.23-1.39-2.23-3.11 0-1.72 1-3.11 2.23-3.11 1.23 0 2.22 1.39 2.22 3.11 0 1.72-0.99 3.11-2.22 3.11z"/>
	<path fill-rule="evenodd" class="s1" d="m21.33 15.11c-1.23 0-2.22-1.39-2.22-3.11 0-1.72 0.99-3.11 2.22-3.11 1.23 0 2.23 1.39 2.23 3.11 0 1.72-1 3.11-2.23 3.11z"/>
</svg>