<svg version="1.2" xmlns="http://www.w3.org/2000/svg" viewBox="0 0 32 32" width="32" height="32">
	<style>
		.s0 { fill: #ffcb4c } 
		.s1 { fill: #65471b } 
		.s2 { fill: #f19020 } 
	</style>
	<path fill-rule="evenodd" class="s0" d="m16 30.22c-8.36 0-15.11-6.75-15.11-15.11 0-8.36 6.75-15.11 15.11-15.11 8.36 0 15.11 6.75 15.11 15.11 0 8.36-6.75 15.11-15.11 15.11z"/>
	<path fill-rule="evenodd" class="s1" d="m15.83 22.27c-1.99 0-3.61-0.77-3.61-1.71 0-0.95 1.62-1.72 3.61-1.72 2 0 3.61 0.77 3.61 1.72 0 0.94-1.61 1.71-3.61 1.71z"/>
	<path class="s2" d="m22.53 23.09l-0.03-0.01c-0.74-0.46-1.73-0.23-2.18 0.52l-0.14 0.22c-0.48-0.5-1.11-0.87-1.84-1.02l-1.24-0.25 1.13-5.53c0.18-0.86-0.38-1.71-1.24-1.88l-0.03-0.01c-0.86-0.17-1.71 0.39-1.88 1.24l-1.49 7.28-0.01 0.06-0.28 1.36v0.01l-1 4.92c-0.2 0.96 0.24 2 1.68 2h2.91c2.49 0 3.23-0.9 3.73-2.75l2.44-3.97c0.45-0.74 0.22-1.73-0.53-2.19z"/>
	<path class="s1" d="m19.92 27.33q-0.03 0-0.06-0.01c-0.16-0.03-0.27-0.19-0.24-0.35q0.08-0.41-0.16-0.75c-0.53-0.72-2.04-1.04-2.58-1.11-0.16-0.02-0.28-0.17-0.26-0.33 0.02-0.17 0.16-0.29 0.34-0.26 0.09 0.01 2.2 0.27 2.98 1.35q0.4 0.54 0.28 1.21c-0.03 0.15-0.16 0.25-0.3 0.25zm-2.9 4.2q-0.33 0-0.74-0.09c-0.54-0.13-0.92-0.44-1.05-0.87-0.1-0.35-0.01-0.73 0.26-1 0.34-0.36 0.89-0.48 1.51-0.32 0.16 0.04 0.26 0.2 0.21 0.36-0.04 0.16-0.2 0.26-0.36 0.22-0.4-0.1-0.74-0.04-0.93 0.15q-0.17 0.19-0.11 0.42c0.06 0.21 0.29 0.38 0.61 0.45 1.05 0.25 1.63-0.16 1.93-0.55 0.45-0.58 0.51-1.37 0.35-1.68-0.38-0.72-1.82-0.88-2.35-0.88-0.17 0-0.3-0.13-0.3-0.3 0-0.17 0.13-0.3 0.3-0.3 0.09 0 2.26 0.01 2.88 1.21 0.27 0.52 0.2 1.55-0.4 2.32-0.28 0.35-0.84 0.86-1.81 0.86zm-4.38-19.78c0 1.24-0.75 2.24-1.68 2.24-0.92 0-1.68-1-1.68-2.24 0-1.23 0.75-2.24 1.68-2.24 0.93 0 1.68 1.01 1.68 2.24zm13.93-2.62q0.3 0 0.56-0.19c0.42-0.31 0.5-0.9 0.19-1.32-3.08-4.11-7.19-4.16-7.37-4.16-0.52 0-0.94 0.43-0.94 0.95 0 0.52 0.42 0.94 0.94 0.94 0.15 0 3.37 0.08 5.86 3.4 0.18 0.25 0.47 0.38 0.76 0.38zm-7.21 2.62c0 1.24 0.75 2.24 1.68 2.24 0.92 0 1.68-1 1.68-2.24 0-1.23-0.75-2.24-1.68-2.24-0.93 0-1.68 1.01-1.68 2.24zm-13.93-2.62q-0.3 0-0.56-0.19c-0.42-0.31-0.5-0.9-0.19-1.32 3.08-4.11 7.19-4.16 7.37-4.16 0.52 0 0.94 0.43 0.94 0.95 0 0.52-0.42 0.94-0.94 0.94-0.15 0-3.37 0.08-5.86 3.4-0.18 0.25-0.47 0.38-0.76 0.38z"/>
</svg>