<svg version="1.2" xmlns="http://www.w3.org/2000/svg" viewBox="0 0 32 32" width="32" height="32">
	<style>
		.s0 { fill: #ccd6dd } 
		.s1 { fill: #292f33 } 
	</style>
	<path class="s0" d="m30.22 14.22c0-8.89-6.36-14.22-14.22-14.22-7.85 0-14.22 5.33-14.22 14.22 0 4.96 0 9.24 5.33 11.24v3.87c0 1.48 1.19 2.67 2.67 2.67 1.47 0 2.66-1.19 2.66-2.67v-2.8q0.44 0.03 0.89 0.06v2.74c0 1.48 1.2 2.67 2.67 2.67 1.47 0 2.67-1.19 2.67-2.67v-2.74q0.45-0.03 0.89-0.06v2.8c0 1.48 1.19 2.67 2.66 2.67 1.48 0 2.67-1.19 2.67-2.67v-3.87c5.33-2 5.33-6.28 5.33-11.24z"/>
	<path fill-rule="evenodd" class="s1" d="m9.78 16.89c-2.46 0-4.45-1.99-4.45-4.45 0-2.45 1.99-4.44 4.45-4.44 2.46 0 4.44 1.99 4.44 4.44 0 2.46-1.98 4.45-4.44 4.45z"/>
	<path fill-rule="evenodd" class="s1" d="m22.22 16.89c-2.46 0-4.44-1.99-4.44-4.45 0-2.45 1.98-4.44 4.44-4.44 2.46 0 4.45 1.99 4.45 4.44 0 2.46-1.99 4.45-4.45 4.45z"/>
	<path class="s1" d="m17.69 20.5c-0.22-0.55-0.89-0.94-1.69-0.94-0.8 0-1.47 0.39-1.69 0.94-0.56 0.16-0.98 0.67-0.98 1.28 0 0.73 0.6 1.33 1.34 1.33 0.58 0 1.07-0.37 1.25-0.89q0.04 0 0.08 0 0.04 0 0.08 0c0.18 0.52 0.67 0.89 1.25 0.89 0.74 0 1.34-0.6 1.34-1.33 0-0.61-0.42-1.12-0.98-1.28z"/>
</svg>