<svg version="1.2" xmlns="http://www.w3.org/2000/svg" viewBox="0 0 32 32" width="32" height="32">
	<style>
		.s0 { fill: #ffcc4d } 
		.s1 { fill: #664500 } 
		.s2 { fill: #5dadec } 
		.s3 { fill: #e75a70 } 
	</style>
	<path fill-rule="evenodd" class="s0" d="m16 32c-8.85 0-16-7.15-16-16 0-8.85 7.15-16 16-16 8.85 0 16 7.15 16 16 0 8.85-7.15 16-16 16z"/>
	<path class="s1" d="m19.56 24c0 2.46-1.6 2.67-3.56 2.67-1.96 0-3.56-0.21-3.56-2.67 0-2.45 1.6-5.33 3.56-5.33 1.96 0 3.56 2.88 3.56 5.33zm7.11-10.67q-0.17 0-0.33-0.06c-4.65-1.86-6.56-4.66-6.64-4.78-0.27-0.41-0.16-0.96 0.25-1.23 0.41-0.27 0.96-0.16 1.23 0.24 0.02 0.03 1.72 2.48 5.82 4.12 0.45 0.18 0.67 0.7 0.49 1.15-0.14 0.35-0.47 0.56-0.82 0.56zm-21.34 0c-0.35 0-0.68-0.21-0.82-0.56-0.18-0.45 0.04-0.97 0.49-1.15 4.1-1.64 5.8-4.09 5.82-4.12 0.27-0.4 0.82-0.51 1.23-0.24 0.41 0.28 0.52 0.83 0.25 1.23-0.08 0.12-1.99 2.92-6.64 4.78q-0.16 0.06-0.33 0.06z"/>
	<path class="s2" d="m21.33 14.22h3.56v16.89l-3.56-0.04zm-14.22 16.89l3.56-0.04v-16.85h-3.56z"/>
	<path class="s1" d="m13.33 16q-0.2 0-0.39-0.09c-3.13-1.56-6.29-0.02-6.32 0-0.44 0.22-0.97 0.04-1.19-0.4-0.22-0.44-0.04-0.97 0.39-1.19 0.17-0.08 4-1.96 7.91 0 0.44 0.22 0.62 0.75 0.4 1.19-0.16 0.31-0.47 0.49-0.8 0.49zm12.45 0q-0.21 0-0.4-0.09c-3.12-1.56-6.28-0.02-6.32 0-0.43 0.22-0.97 0.04-1.19-0.4-0.22-0.44-0.04-0.97 0.4-1.19 0.16-0.08 4-1.96 7.91 0 0.44 0.22 0.61 0.75 0.39 1.19-0.15 0.31-0.47 0.49-0.79 0.49z"/>
	<path fill-rule="evenodd" class="s2" d="m16 32c-8.85 0-16-0.79-16-1.78 0-0.98 7.15-1.78 16-1.78 8.85 0 16 0.8 16 1.78 0 0.99-7.15 1.78-16 1.78z"/>
	<path fill-rule="evenodd" class="s3" d="m16 25.78c-1.47 0-2.67-0.8-2.67-1.78 0-0.98 1.2-1.78 2.67-1.78 1.47 0 2.67 0.8 2.67 1.78 0 0.98-1.2 1.78-2.67 1.78z"/>
</svg>