<svg version="1.2" xmlns="http://www.w3.org/2000/svg" viewBox="0 0 32 32" width="32" height="32">
	<style>
		.s0 { fill: #78b159 } 
		.s1 { fill: #c6e4b5 } 
		.s2 { fill: #a6d388 } 
		.s3 { fill: #da2f47 } 
		.s4 { fill: #e75a70 } 
	</style>
	<path class="s0" d="m20.25 4.19c0 0-5.06-6.35-9.47-3.29-3.28 2.28-3.26 6.43-2.94 8.43 0.33 2.04 1.34 6.69 1.95 10.59 0.61 3.91 1.05 7.4 1.68 11.48 0.17 1.03 3.62 0.46 3.53-0.55-0.16-1.72-1.62-7.97-2.01-10.71-0.36-2.54-1.21-7.48-1.71-10.35-0.55-3.15-0.25-5.94 1.91-6.57 2.47-0.73 4.93 3.41 4.93 3.41z"/>
	<path class="s1" d="m11.63 14.6c0 0 1.52 0.57 2.55 1.6 1.36 1.37 2.2 4.04 1.13 7.07-0.66 1.86 0.95 4.51 0.95 4.51 0 0-1.79-0.96-2.91-2.38-1.14-1.44-1.89-3.4-2.04-5.02-0.11-1.06-0.16-3.17 0.32-5.78z"/>
	<path class="s2" d="m9.13 12.42c-0.69 0.33-2.66 2.85-2.88 4.24-0.92 5.82 2.56 9.62 2.56 9.62 0 0 0.61-3.54 1.57-4.81 1.1-1.49 0.48-5.05 0-6.36-0.35-0.94-1.25-2.69-1.25-2.69z"/>
	<path class="s0" d="m21.99 7.34c-0.7 0.95-2.29 0.96-3.56 0.03-1.26-0.93-1.72-2.46-1.02-3.4 0.7-0.95 2.29-0.97 3.55-0.03 1.27 0.93 1.73 2.45 1.03 3.4z"/>
	<path class="s0" d="m23.29 4.77c0.75 1.14 0.1 2.9-1.46 3.92-1.56 1.03-3.43 0.94-4.18-0.2-0.75-1.14-0.09-2.89 1.47-3.92 1.55-1.03 3.42-0.94 4.17 0.2z"/>
	<path class="s0" d="m18.41 7.24c-0.78 1.02-2.58 1.31-2.58 1.31 0 0 1.51 1.12 2.43 0.49 0.93-0.63 0.15-1.8 0.15-1.8zm2.27-2.92c-0.05-0.73 1.16-2.04 1.74-1.7 0 0-0.77 0.88-0.04 1.41 0.72 0.54-1.7 0.29-1.7 0.29z"/>
	<path class="s3" d="m18.89 7.7c-1.59 0.86-3.02 2.88-2.28 6.75 0.65 3.36 3.49 4.73 2.54 6.97-0.88 2.07 0.73 5.42 2.87 0.35 0.67-1.59 2.5-8.25 0.68-12.32-1.09-2.46-3.07-2.15-3.81-1.75z"/>
	<path class="s4" d="m20.76 6.29c1.17-1.71 2.88-1.93 4.04-0.84 5.36 5.09 3.15 15.07-0.47 17.22-2.13 1.27-0.75-6.41-3.63-9.55-1.69-1.85-1.74-4.69 0.06-6.83z"/>
</svg>