<svg version="1.2" xmlns="http://www.w3.org/2000/svg" viewBox="0 0 32 32" width="32" height="32">
	<style>
		.s0 { fill: #ffcc4d } 
		.s1 { fill: #664500 } 
		.s2 { fill: #f4900c } 
	</style>
	<path fill-rule="evenodd" class="s0" d="m16 30.22c-8.36 0-15.11-6.75-15.11-15.11 0-8.36 6.75-15.11 15.11-15.11 8.36 0 15.11 6.75 15.11 15.11 0 8.36-6.75 15.11-15.11 15.11z"/>
	<path fill-rule="evenodd" class="s1" d="m16 24c-3.44 0-6.22-2.98-6.22-6.67 0-3.68 2.78-6.66 6.22-6.66 3.44 0 6.22 2.98 6.22 6.66 0 3.69-2.78 6.67-6.22 6.67z"/>
	<path class="s2" d="m19.97 24.33c0 0 0.89-0.64 0.15-1.43-0.74-0.8-1.44 0.04-1.44 0.04l-3.69 3.44c-0.06-0.18-0.41-0.66-0.49-0.84l5.12-4.77c0 0 0.88-0.64 0.14-1.44-0.74-0.79-1.44 0.05-1.44 0.05l-4.81 4.48c-0.11-0.14-0.41-0.48-0.53-0.62l5.58-5.2c0 0 0.89-0.64 0.15-1.43-0.74-0.8-1.45 0.04-1.45 0.04l-5.58 5.2c-0.13-0.13-0.54-0.54-0.67-0.66l5.21-4.86c0 0 0.88-0.65 0.15-1.44-0.75-0.79-1.45 0.05-1.45 0.05l-5.51 5.14-0.44 0.41-0.2 0.18c0 0-0.47 0.66-0.96 0.16l1.63-3.69c0 0 0.52-0.96-0.43-1.48-0.96-0.51-1.47 0.44-1.47 0.44l-1.49 2.45c-0.59 0.98-1.2 1.94-1.92 2.82-2.03 2.48-1.96 6.14 0.29 8.56 2.45 2.63 6.57 2.77 9.2 0.32l0.4-0.37z"/>
	<path class="s1" d="m9.79 5.4c-2 0.54-3.09 1.75-3.16 1.83-0.32 0.37-0.29 0.93 0.08 1.25 0.37 0.33 0.93 0.29 1.26-0.08 0.07-0.08 1.85-2 5.16-1.33 0.48 0.1 0.95-0.21 1.05-0.69 0.1-0.48-0.21-0.95-0.69-1.05-1.46-0.3-2.69-0.19-3.7 0.07zm12.42 0.01c-1.01-0.27-2.24-0.37-3.7-0.08-0.48 0.1-0.79 0.57-0.69 1.05 0.1 0.48 0.57 0.79 1.05 0.69 3.31-0.67 5.09 1.25 5.17 1.33 0.32 0.37 0.88 0.4 1.25 0.07 0.36-0.32 0.4-0.88 0.08-1.24-0.07-0.08-1.16-1.29-3.16-1.82z"/>
</svg>